<?xml version="1.0" encoding="utf-8"?>
<!-- Generator: Adobe Illustrator 26.3.1, SVG Export Plug-In . SVG Version: 6.00 Build 0)  -->
<svg version="1.1" id="Layer_2_00000037659967289470972190000013705192179187502997_"
	 xmlns="http://www.w3.org/2000/svg" xmlns:xlink="http://www.w3.org/1999/xlink" x="0px" y="0px" viewBox="0 0 59.1 59.8"
	 style="enable-background:new 0 0 59.1 59.8;" xml:space="preserve">
<g>
	<g>
		<path d="M0.7,59.8c-0.8-0.8-0.9-1-0.4-2.1c4.4-10,8.9-20.1,13.3-30.1c1.5-3.4,3-6.8,4.5-10.1c0.6-1.3,1.5-1.8,2.9-1.5
			c1.1,0.2,2.1,0.7,3.1,1.2c2.7,1.5,5,3.4,7.3,5.5c3.9,3.5,7.4,7.2,10.4,11.5c0.8,1.2,1.6,2.4,2.1,3.8c0.2,0.5,0.3,1,0.4,1.5
			c0.2,1.1-0.3,2-1.4,2.4c-3.3,1.5-6.6,2.9-9.9,4.3c-10,4.4-20.1,8.8-30.1,13.2c-0.3,0.1-0.7,0.2-1,0.5C1.4,59.8,1.1,59.8,0.7,59.8z
			 M19,21.5c-0.1,0.2-0.1,0.3-0.2,0.4c-0.9,2-1.7,4-2.7,6c-0.2,0.5-0.2,0.8,0.2,1.2c1.8,1.7,3.5,3.5,5.3,5.3
			c0.6,0.6,0.6,1.3,0.1,1.8c-0.5,0.5-1.2,0.5-1.8,0c-0.1-0.1-0.3-0.3-0.4-0.4c-1.4-1.4-2.9-2.9-4.3-4.3c-0.3-0.3-0.5-0.3-0.7,0.1
			c-1.5,3.4-3,6.8-4.5,10.2c-0.2,0.5-0.1,0.7,0.2,1.1c2.3,2.3,4.6,4.6,6.9,6.9c0.4,0.4,0.7,0.4,1.2,0.2c3.4-1.5,6.7-3,10.1-4.4
			c0.6-0.3,0.6-0.3,0.1-0.7c-0.6-0.6-1.3-1.2-1.8-1.9c-0.6-0.7-0.5-1.5,0.2-2c0.5-0.3,1.1-0.2,1.6,0.3c0.9,0.8,1.7,1.7,2.6,2.6
			c0.3,0.3,0.5,0.3,0.9,0.2c1.6-0.7,3.1-1.4,4.7-2.1c0.6-0.3,1.3-0.6,1.9-0.8C30.6,35.9,24.1,29.4,19,21.5z M20.8,18.4
			c-0.3,0.1-0.2,0.4-0.1,0.5c0.5,1.3,1.2,2.6,2.1,3.7c3.7,5.2,8.1,9.6,13.1,13.5c1.6,1.2,3.2,2.4,5.1,3.1c0.2,0.1,0.4,0.3,0.6,0.1
			c0.2-0.2,0-0.4-0.1-0.6c-0.6-1.6-1.6-3-2.6-4.4c-3.3-4.4-7.1-8.3-11.3-11.7c-1.8-1.5-3.6-2.8-5.7-3.8
			C21.5,18.7,21.1,18.6,20.8,18.4z M3.7,56.2c0.1,0,0.2,0,0.2,0c3.6-1.6,7.2-3.2,10.8-4.7c0.5-0.2,0.4-0.4,0.1-0.6
			c-1.9-1.9-3.8-3.8-5.6-5.7c-0.4-0.4-0.5-0.3-0.7,0.2c-0.5,1.2-1.1,2.5-1.6,3.7C5.8,51.4,4.8,53.8,3.7,56.2z"/>
	</g>
	<g>
		<path d="M38.4,19.7c0.4,0,1,0.1,1.6,0.2c0.6,0,0.8-0.2,0.8-0.7c0-0.4-0.1-0.8-0.1-1.2c-0.3-2.6,1.3-4.2,4-3.7
			c0.3,0.1,0.7,0.1,1,0.1c0.5,0,0.8-0.2,0.7-0.7c0-0.4-0.1-0.9-0.1-1.3c-0.3-2.6,1.3-4.2,3.9-3.8c0.7,0.1,1.5,0.3,2.2-0.2
			c0.5-0.3,1.1,0,1.5,0.5c0.3,0.5,0.2,1.2-0.2,1.6c-0.9,0.8-2,0.9-3.1,0.7c-0.3,0-0.7-0.1-1-0.2c-0.5,0-0.8,0.2-0.7,0.7
			c0,0.4,0.1,0.8,0.1,1.2c0.4,2.6-1.3,4.3-3.9,3.9c-0.3-0.1-0.7-0.1-1-0.2c-0.6-0.1-0.9,0.2-0.8,0.8c0,0.4,0.1,0.8,0.1,1.2
			c0.4,2.5-1.2,4.2-3.8,3.9c-0.3,0-0.6-0.1-0.9-0.2c-0.4-0.1-0.7,0-1,0.2c-0.7,0.4-1.3,0.3-1.8-0.2c-0.4-0.6-0.3-1.2,0.3-1.8
			C36.6,19.9,37.3,19.7,38.4,19.7z"/>
	</g>
	<g>
		<path d="M50.3,23.7c2,0,3.6,1.6,3.6,3.6c0,2-1.7,3.6-3.6,3.6c-2,0-3.6-1.7-3.6-3.6C46.7,25.3,48.3,23.7,50.3,23.7z M49.2,27.3
			c0,0.6,0.5,1.1,1.1,1.1c0.6,0,1.1-0.5,1.1-1.1c0-0.6-0.5-1-1.1-1C49.7,26.2,49.2,26.7,49.2,27.3z"/>
	</g>
	<g>
		<path d="M29.4,8.5c0,2-0.7,3.7-2,5.1c-0.6,0.6-1.3,0.7-1.9,0.2c-0.5-0.5-0.5-1.2,0-1.9c1.9-2.2,1.9-4.8,0-7
			c-0.5-0.6-0.5-1.3,0-1.8c0.5-0.5,1.3-0.4,1.8,0.2C28.7,4.7,29.4,6.5,29.4,8.5z"/>
	</g>
	<g>
		<path d="M52.6,37.2c-1.4,0-2.6,0.5-3.6,1.4c-0.5,0.4-1,0.5-1.5,0.2c-0.5-0.3-0.6-0.8-0.6-1.3c0-0.3,0.2-0.5,0.4-0.7
			c2.7-2.8,7.8-2.8,10.4,0c0.5,0.6,0.6,1.3,0.1,1.8c-0.5,0.5-1.2,0.5-1.8,0C55.1,37.7,53.9,37.2,52.6,37.2z"/>
	</g>
	<g>
		<path d="M37.6,10.6c-0.7,0-1.2-0.4-1.2-1.1c0-0.2,0-0.4,0-0.6c0-0.3-0.1-0.5-0.5-0.5c-0.3,0-0.6,0-0.9-0.1c-0.6-0.1-1-0.6-1-1.2
			c0-0.6,0.5-1.1,1.1-1.2c0.4-0.1,0.8,0.2,1.1-0.1c0.3-0.3,0.1-0.7,0.1-1.1c0.1-0.7,0.6-1.1,1.2-1.1c0.6,0,1.2,0.4,1.2,1
			c0,1,0.3,1.4,1.4,1.4c0.6,0,1,0.6,1,1.2c0,0.6-0.4,1.2-0.9,1.2c-1,0-1.5,0.4-1.4,1.4C38.7,10.2,38.2,10.6,37.6,10.6z"/>
	</g>
	<g>
		<path d="M56.2,16.5c0.6,0,1.1,0,1.7,0c0.7,0,1.2,0.5,1.3,1.2c0,0.6-0.4,1.2-1.1,1.2c-1.3,0.1-2.5,0.1-3.8,0
			c-0.7-0.1-1.1-0.7-1.1-1.3c0.1-0.6,0.6-1.1,1.3-1.1C55,16.5,55.6,16.5,56.2,16.5z"/>
	</g>
	<g>
		<path d="M57.3,2.9c0,0.6,0,1.2,0,1.8c0,0.7-0.5,1.2-1.2,1.2c-0.7,0-1.2-0.5-1.2-1.2c0-1.2,0-2.3,0-3.5c0-0.7,0.5-1.2,1.2-1.2
			c0.7,0,1.1,0.5,1.2,1.2C57.3,1.8,57.3,2.4,57.3,2.9z"/>
	</g>
	<g>
		<path d="M46.9,3.7c-0.7,0-1.2-0.5-1.2-1.2c0-0.7,0.5-1.2,1.2-1.2c0.7,0,1.2,0.5,1.2,1.2C48.1,3.1,47.6,3.7,46.9,3.7z"/>
	</g>
	<g>
		<path d="M49.2,43.3c0-0.7,0.6-1.2,1.2-1.2c0.6,0,1.2,0.6,1.2,1.2c0,0.6-0.6,1.2-1.2,1.2C49.8,44.6,49.2,44,49.2,43.3z"/>
	</g>
	<g>
		<path d="M21.2,8.2c0,0.7-0.5,1.2-1.2,1.2c-0.7,0-1.2-0.5-1.2-1.2C18.8,7.5,19.3,7,20,7C20.7,7,21.2,7.5,21.2,8.2z"/>
	</g>
	<g>
		<path d="M32.8,17.7c-0.7,0-1.2-0.5-1.2-1.2c0-0.7,0.5-1.2,1.2-1.2c0.7,0,1.2,0.6,1.2,1.2C34,17.2,33.5,17.7,32.8,17.7z"/>
	</g>
	<g>
		<path d="M57.4,25.8c-0.7,0-1.2-0.5-1.2-1.2c0-0.6,0.6-1.2,1.2-1.2c0.7,0,1.2,0.6,1.2,1.2C58.7,25.2,58.1,25.8,57.4,25.8z"/>
	</g>
	<g>
		<path d="M43.4,28.2c0,0.7-0.5,1.2-1.2,1.2c-0.7,0-1.2-0.5-1.2-1.2c0-0.7,0.5-1.2,1.2-1.2C42.9,27,43.4,27.5,43.4,28.2z"/>
	</g>
	<g>
		<path d="M25.5,38.7c0,0.6-0.6,1.2-1.2,1.2c-0.6,0-1.2-0.6-1.2-1.2c0-0.7,0.6-1.2,1.2-1.2C24.9,37.4,25.4,38,25.5,38.7z"/>
	</g>
</g>
</svg>
