<?xml version="1.0" encoding="utf-8"?>
<!-- Generator: Adobe Illustrator 26.3.1, SVG Export Plug-In . SVG Version: 6.00 Build 0)  -->
<svg version="1.1" id="Layer_2_00000037659967289470972190000013705192179187502997_"
	 xmlns="http://www.w3.org/2000/svg" xmlns:xlink="http://www.w3.org/1999/xlink" x="0px" y="0px" viewBox="0 0 55.5 56.2"
	 style="enable-background:new 0 0 55.5 56.2;" xml:space="preserve">
<path d="M55.5,19.6c0-0.3-0.2-0.5-0.4-0.7c-0.2-0.2-0.5-0.3-0.8-0.2c-0.3,0-0.6,0.2-0.9,0.6l0,0c-0.4,0.6-0.9,1.1-1.3,1.8
	c-2,3.5-4.4,6.8-7.1,10.3l-0.2,0.2c-0.9,1.1-1.8,2.3-2.8,3.2C42.1,34.9,42,35,42,35c0,0-0.1-0.1-0.1-0.2c-0.2-0.6-0.3-1.3-0.2-2
	c0.2-1.6,0.7-3.2,1.2-4.5c0.1-0.4,0.4-1-0.2-1.5c-0.6-0.5-1.2-0.2-1.5,0.1c-0.5,0.3-0.9,0.5-1.4,0.8c-0.6,0.4-1.3,0.8-2,1.2
	c0,0,0,0,0,0c0,0,0,0,0,0c0-0.5,0-1-0.1-1.6c0-0.1,0-0.2,0-0.3c-0.1-0.9-0.3-1.9-0.8-2.8c-0.5-1-1.5-1.3-2.4-1
	c-0.1,0-0.2,0.1-0.3,0.2c0-0.2-0.1-0.4-0.1-0.6l0-0.3c-0.2-1-0.4-2-0.9-2.9c-0.4-0.6-0.9-1-1.4-1.1c-0.5-0.1-1.1,0.1-1.6,0.5
	c-0.1-0.5-0.2-1-0.4-1.5c-0.2-0.4-0.1-0.8,0.3-1.1c3.8-2.9,7.1-4.7,10.5-5.8c0.3-0.1,0.6-0.2,1-0.3c1.9-0.6,3.9-1.2,5.8-2
	c2.1-0.9,4.6-2.1,6.7-4c0.7-0.6,0.6-1.2,0.3-1.6c-0.4-0.5-1-0.5-1.7,0c-0.1,0.1-0.3,0.2-0.4,0.3c-0.3,0.2-0.6,0.5-0.9,0.7
	c-2.5,1.7-5.5,3.1-9,4.1c-3,0.9-6.4,2-9.6,4.1c-0.3,0.2-0.6,0.4-0.9,0.5c-1.3,0.8-2.7,1.7-3.8,2.9c0,0,0,0,0,0c0,0,0,0-0.1,0
	c-0.8-0.3-1.5-0.1-2.1,0.6c0,0,0,0,0,0c0,0,0,0,0,0c-0.5-0.5-1-1-1.5-1.5l-0.2-0.2c0.7,0,1.4,0,2.1-0.1c1.3-0.2,2.7-0.5,3.8-1.5
	c0.6-0.6,0.9-1.1,0.9-1.7c0-0.5-0.4-1-1.1-1.5c-0.6-0.4-1.3-0.8-2-1.1c-5.2-2.3-9.3-3.9-13.3-5c-2.3-0.7-4.3-1.3-5.7-2.8
	C8.8,0.2,8.7,0.2,8.6,0.1C8-0.1,7.6,0,7.2,0.4c-0.3,0.4-0.3,0.9,0,1.3C7.3,1.8,7.4,1.9,7.5,2l0.1,0.1c1.6,1.6,3.7,2.4,5.4,2.8
	c3.6,1,7.3,2.3,11.8,4.2c1.2,0.5,2.5,1.1,3.7,1.8c0.1,0,0.1,0.1,0.2,0.1c0,0-0.1,0.1-0.2,0.1c-0.6,0.4-1.3,0.6-1.9,0.7
	c-1.5,0.2-3.1,0.1-4.6,0l-0.3,0c-0.3,0-1-0.1-1.3,0.6c-0.3,0.7,0.2,1.3,0.4,1.4c0.8,0.8,1.7,1.6,2.6,2.5c-0.5-0.3-0.9-0.4-1.4-0.3
	c-0.5,0.1-0.9,0.4-1.3,1c-0.3,0.5-0.5,1.1-0.7,1.8c-0.4,1.8-0.6,3.6-0.7,5.2c-0.2,2.2-0.3,4.3-0.3,6.3c0,0.1,0,0.1,0,0.2
	c-0.4-0.6-0.8-1.1-1.3-1.6c-0.6-0.5-1.4-1.1-2.5-0.8c-0.4,0.1-0.7,0.1-1-0.2c-0.1-0.1-0.3-0.2-0.4-0.3c-0.1,0-0.1-0.1-0.2-0.1
	C9.5,24.3,6.4,21,4.3,17.4c-0.5-0.9-1.1-1.7-1.7-2.6c-0.2-0.3-0.4-0.5-0.6-0.8c-0.3-0.4-0.6-0.6-0.9-0.7c-0.3,0-0.5,0-0.8,0.2
	c-0.2,0.2-0.4,0.4-0.4,0.7c-0.1,0.3,0.1,0.7,0.3,1.1c0.8,1.1,1.5,2.3,2.3,3.4l0.2,0.3c0.8,1.2,1.6,2.5,2.5,3.7c2.2,2.6,4.8,5,8,7.4
	c0.4,0.3,0.5,0.5,0.5,0.9c-0.1,0.8-0.1,1.6-0.1,2.4c0,1.6,0.2,3.1,0.4,4.6c0,0.2,0.1,0.5,0.1,0.7c0.3,2.5,0.9,5.4,2.7,8
	c0.2,0.3,0.4,0.6,0.6,1c0.1,0.1,0.1,0.2,0.2,0.4c1,1.8,2.1,3.7,2.4,5.9c0,0.2,0,0.5,0.1,0.8c0,0.2,0,0.5,0,0.7c0.1,0.6,0.5,1,1.1,1
	c0,0,0,0,0,0c0.5,0,0.9-0.4,1-0.9c0-0.3,0.1-0.5,0-0.8c-0.1-1.2-0.3-2.1-0.6-3c-0.7-1.9-1.6-3.7-2.7-5.5c-0.9-1.5-1.9-3.2-2.3-5.2
	c-0.5-2.9-0.7-6-0.7-9.8c0-0.1,0-0.2,0-0.3c0-0.1,0-0.2,0-0.3c0,0,0,0,0,0c0.1,0,0.3,0.1,0.5,0.3l0.1,0.1c0.2,0.3,0.5,0.6,0.7,0.9
	c0.4,0.7,0.8,1.4,1.2,2.5c0.1,0.3,0.2,0.6,0.3,0.9c0.1,0.4,0.3,0.8,0.4,1.1c0.2,0.5,0.6,0.8,1.2,0.7c0.5-0.1,0.8-0.5,0.9-1
	c0-0.2,0-0.3,0-0.5l0-0.1c0-4.1,0-8.5,0.5-12.8c0.1-1.3,0.3-2.6,0.8-3.9c0,0,0-0.1,0-0.1c0,0,0-0.1,0-0.1c0,0,0,0.1,0.1,0.1
	c0,0,0,0,0,0.1c0.4,0.6,0.6,1.4,0.7,2.1c0.5,2.8,0.6,5.6,0.6,8.3c0,0.3,0,0.5,0,0.8c0,0.7,0,1.4,0,2.1c0,0.7,0.5,1.2,1.1,1.2
	c0,0,0,0,0,0c0.6,0,1-0.5,1.1-1.2l0-0.3c0-1,0.1-2.1,0.1-3.2c0-3.1,0.2-5.6,0.5-7.9c0.1-0.9,0.3-1.8,0.6-2.7c0,0,0-0.1,0-0.1
	c0,0,0-0.1,0.1-0.1c0,0,0.1,0.1,0.1,0.2l0,0c0.2,0.5,0.4,1,0.4,1.5c0.4,2.1,0.4,4.2,0.4,6.3l0,0.5c0,0.6,0,1.2,0,1.8
	c0,1.3,0,2.6,0,3.8c0,0.5,0.1,0.8,0.4,1.1c0.2,0.2,0.5,0.3,0.8,0.3c0.5,0,1.1-0.4,1.1-1.4c0-0.9,0-1.7,0-2.6c0-0.8,0-1.7,0-2.5
	c0-1.4,0.1-2.8,0.3-4.1c0.1-0.5,0.2-1.1,0.5-1.6c0,0,0,0,0,0c0,0,0,0,0,0c0.2,0.4,0.3,0.8,0.4,1.3c0.6,2.7,0.7,5.4,0.8,8.1
	c0,0.5,0,1,0.1,1.5c0,1.2,0.8,1.3,1.1,1.3c0,0,0,0,0,0c0.6,0,1-0.5,1.1-1.3l0-0.9c0-1.1,0.1-2.2,0.1-3.4c0-0.6,0.1-1.2,0.3-1.8
	l0-0.1c0,0,0,0,0,0c0,0,0,0.1,0,0.1c0.3,0.8,0.4,1.6,0.5,2.6c0.2,2.5,0.4,5.2,0.6,7.8c0.2,3,0.1,5.5-0.3,7.8
	c-0.2,0.9-0.4,1.8-0.6,2.7c-0.4,1.8-0.8,3.7-1,5.6l0,0.2c-0.1,1-0.2,1.9-0.2,2.9c0,0.6,0.4,1.1,1,1.1c0,0,0.1,0,0.1,0
	c0.6,0,1-0.4,1-1c0-0.1,0-0.1,0-0.2c0-0.1,0-0.3,0-0.5c0-2.2,0.4-4.7,1.1-7.4c0.9-3.6,1.3-6.9,1.2-9.9c-0.1-1.4-0.2-2.8-0.3-4.1
	c-0.1-0.6-0.1-1.2-0.2-1.8c0,0,0-0.1,0-0.1c0,0,0-0.1,0-0.1c0,0,0,0,0,0c0.7-0.4,1.3-0.7,2-1.1l0.1-0.1c0,0.1,0,0.1-0.1,0.2
	c-0.2,0.7-0.3,1.3-0.4,1.9c-0.2,1.4-0.2,3,0.8,4.5c0.6,0.9,1.5,1.1,2.4,0.5c0.5-0.3,0.9-0.7,1.4-1.2c2.9-3.3,5.6-6.9,7.9-10.7
	c0.3-0.4,0.5-0.9,0.8-1.3c0.7-1.1,1.4-2.2,2.2-3.2C55.4,20.3,55.5,19.9,55.5,19.6z M24.8,18.3C24.8,18.3,24.8,18.3,24.8,18.3
	c-0.1-0.3-0.3-0.7-0.5-1C24.8,17.7,24.9,18,24.8,18.3z"/>
</svg>
