<?xml version="1.0" encoding="utf-8"?>
<!-- Generator: Adobe Illustrator 26.3.1, SVG Export Plug-In . SVG Version: 6.00 Build 0)  -->
<svg version="1.1" id="Layer_2_00000037659967289470972190000013705192179187502997_"
	 xmlns="http://www.w3.org/2000/svg" xmlns:xlink="http://www.w3.org/1999/xlink" x="0px" y="0px" viewBox="0 0 60 60"
	 style="enable-background:new 0 0 60 60;" xml:space="preserve">
<path d="M60,21.7c0-0.9-0.3-1.6-0.8-2c-0.5-0.4-1.1-0.6-1.9-0.6c-0.1,0-0.3,0-0.4,0c-0.1,0-0.2,0-0.3,0c-0.3,0-0.5-0.1-0.6-0.3
	c-0.1-0.4-0.4-0.6-0.9-0.8c-0.2-0.1-0.3-0.1-0.5-0.2c-0.5-0.2-1-0.4-1.4-0.5c-0.4-0.1-0.6-0.4-0.6-0.9c0-1.4,0-2.8,0-4.2l0-0.3
	c0-0.6-0.1-0.9-0.3-1.2c-0.2-0.2-0.6-0.3-1.2-0.3c-7.5,0.1-14.2,2.3-20,6.7c0,0-0.1,0.1-0.1,0.1c-0.1,0.1-0.2,0.2-0.2,0.1
	c-0.1-0.1-0.1-0.2-0.1-0.4c0,0,0-0.1,0-0.1c-0.5-3.6-1.5-6.7-3.3-9.4c-2.5-3.8-6-6.3-10.6-7.3c-0.5-0.1-0.9-0.1-1.1,0.1
	c-0.3,0.2-0.4,0.6-0.4,1.1c0,0.6,0,1.3,0,1.9c0,0.3,0,0.6,0,0.9c0,0.3,0,0.6-0.1,0.6c-0.1,0-0.3,0-0.6-0.1c-1.1-0.4-2.3-0.8-3.5-1
	c-0.6-0.1-1-0.1-1.3,0.1C9.7,3.8,9.6,4.2,9.6,4.8c0,2.5,0,5.1,0,7.5l0,3.1c0,0.9,0,0.9-0.9,1.2l0,0c-1.3,0.3-2.6,0.8-3.8,1.3
	c-0.4,0.2-0.8,0.4-1,0.8c-0.1,0.3-0.3,0.4-0.6,0.4c-0.1,0-0.2,0-0.3,0c-0.1,0-0.2,0-0.3,0C1.4,19,0.5,19.5,0,20.5l0,0v28l0,0
	c0.3,0.3,0.7,0.7,1.3,0.4C2,48.7,2,48.1,2,47.7c0-9.6,0-18,0-25.7c0-0.1,0-0.1,0-0.2c0-0.3,0-0.5,0.2-0.6c0.4-0.1,1-0.1,1.4,0
	c0.1,0,0.1,0.1,0.1,0.3c0,0.2,0,0.5,0,0.7l0,32.1l0,0.2c0,0.2,0,0.3,0,0.5c0,1,0.4,1.4,1.4,1.4c5.3,0,10.6,0,15.9,0l33.6,0
	c1.4,0,1.7-0.3,1.7-1.6c0-8,0-16,0-24v-8.6c0-0.6,0.1-0.9,0.3-1.1c0.2-0.2,0.6-0.2,1.2,0c0.2,0,0.3,0.1,0.3,0.3c0,0.2,0,0.3,0,0.5
	v0.1c0,11.7,0,23.4,0,35c0,0.9,0,0.9-0.9,0.9h-5.2c-6.2,0-12.3,0-18.5,0c-0.5,0-0.8-0.1-1.2-0.4c-1.4-1-3.2-1-4.6,0
	c-0.3,0.2-0.7,0.4-1.1,0.4c0,0,0,0,0,0c-6,0-12,0-17.9,0l-5.9,0C2,58,2,58,2,57.2l0-0.3c0-1,0-2.1,0-3.2c0-0.5,0-1-0.6-1.2
	c-0.5-0.2-0.9-0.1-1.3,0.4l0,0v0c0,0.6,0,1.1,0,1.7c0,1.6,0,3.2,0,4.9c0,0.2,0,0.3,0.1,0.4C0.2,60,0.3,60,0.6,60c0,0,0,0,0,0
	c7.7,0,15.6,0,23.2,0l4.4,0l0,0c0.1,0,0.1-0.1,0.2-0.1c0.1-0.1,0.2-0.2,0.3-0.3c0.8-0.8,1.8-0.8,2.7,0c0.1,0.1,0.2,0.2,0.3,0.3
	c0.1,0,0.1,0.1,0.2,0.1l0,0h26.7l0,0c1-0.5,1.5-1.3,1.5-2.5C60,46.8,60,34.2,60,21.7z M31,41.3c0-6.8,0-13.7,0-20.6
	c0-0.5,0.2-0.8,0.5-1.1c4.2-3.5,9.1-5.7,14.8-6.7c1.3-0.2,2.5-0.3,3.7-0.4c0,0,0,0,0.1,0c0.2,0,0.4,0,0.4,0.1
	c0.1,0.1,0.1,0.2,0.1,0.5c0,1.9,0,3.8,0,5.7c0,0.6,0,1.3,0,1.9l0,0.1c0,0.2,0,0.3,0,0.5c0.1,0.6,0.5,1,1,1c0.5,0,1-0.4,1-1
	c0.1-0.6,0-1.1,0-1.6c0-0.2,0-0.3,0.1-0.4c0.1,0,0.2,0,0.4,0l0,0c0.9,0.3,0.9,0.3,0.9,1.3l0,29.9c0,0.4,0,0.6-0.1,0.7
	c-0.1,0.1-0.3,0-0.7-0.1c-3.7-1.1-7.5-1.5-11.3-1.3c-0.6,0-1.1,0.1-1.7,0.2c-0.1,0-0.1,0-0.2,0c2-0.8,4.2-1.4,6.6-1.7
	c1.6-0.2,3.1-0.4,4.6-0.4c0,0,0,0,0,0c1,0,1.4-0.4,1.4-1.5c0-2.8,0-5.6,0-8.5l0-3l0-2.1c0-1.9,0-3.8,0-5.7c0-0.6-0.1-1.1-0.4-1.3
	c-0.2-0.2-0.4-0.3-0.7-0.2c-0.7,0-1,0.5-1,1.6l0,8.3c0,3.2,0,6.4,0,9.7c0,0.7,0,0.8-0.8,0.8c-6.8,0.3-13,2.5-18.4,6.5
	c0,0-0.1,0.1-0.1,0.1c-0.1,0.1-0.2,0.2-0.3,0.1c-0.1,0-0.1-0.1-0.1-0.3c0-0.1,0-0.1,0-0.2C31,48.5,31,44.9,31,41.3z M38.2,52.5
	c4.9-1.2,10-0.9,15.6,0.8c0.4,0.1,0.5,0.3,0.5,0.7c0,0.3-0.2,0.4-0.5,0.4c-6.8,0-13.5,0-20.3,0c0,0,0,0-0.1,0
	C34.7,53.5,36.2,52.9,38.2,52.5z M9.6,39.3c0,1.2,0.2,1.4,1.4,1.7c6.4,1.5,11.7,5.1,15.9,10.8c0,0,0,0,0,0.1C26.9,51.9,27,52,27,52
	c-0.1,0-0.2,0-0.3-0.1c0,0-0.1,0-0.1-0.1c-3.4-1.4-6.9-2.2-10.7-2.2c-1,0-1.9,0-2.9,0.1c-2.1,0.2-4.2,0.6-6.5,1.2
	c-0.3,0.1-0.5,0.1-0.5,0.1c-0.1,0-0.1-0.2-0.1-0.5l0-7.4c0-7.5,0-15.3,0-23c0-0.5,0.2-0.7,0.6-0.9c0.4-0.1,0.9-0.3,1.3-0.4
	c0.4-0.1,0.8-0.3,1.2-0.4c0.3-0.1,0.5-0.1,0.5-0.1c0.1,0.1,0.1,0.3,0.1,0.6c0,2.7,0,5.4,0,8.1l0,5.3C9.6,34.8,9.6,37,9.6,39.3z
	 M5.8,53.7c0-0.3,0.2-0.3,0.5-0.4l0.1,0c1.9-0.6,3.8-1,5.6-1.3c1.3-0.2,2.5-0.2,3.8-0.2c3.2,0,6.2,0.5,9,1.6c0.5,0.2,1,0.4,1.4,0.6
	c0.2,0.1,0.4,0.2,0.6,0.3c0,0,0.1,0,0.1,0.1c0,0,0,0,0,0c0,0-0.1,0-0.1,0c-0.1,0-0.3,0-0.4,0c-6.6,0-13.2,0-19.9,0
	c-0.4,0-0.6,0-0.7-0.2C5.8,54.1,5.8,54,5.8,53.7z M11.6,38.4c0-8.3,0-16.8,0-24.9l0-7.1c0-0.3,0-0.5,0.1-0.6c0,0,0.1,0,0.1,0
	c0.1,0,0.3,0,0.5,0.1c0.4,0.1,0.8,0.3,1.2,0.4c0.4,0.1,0.8,0.3,1.3,0.4c0.5,0.1,0.6,0.4,0.6,0.9c0,1.4,0,2.9,0,4.3
	c0,0.5,0,1.1,0,1.6v5.6c0,5.6,0,11.2,0,16.7c0,1.1,0.2,1.4,1.3,1.7c5.2,1.2,8.9,4.6,10.9,9.9c0.4,1.1,0.7,2,0.8,2.9
	c-0.1-0.2-0.3-0.3-0.4-0.5c-0.4-0.5-0.8-1.1-1.3-1.6c-4-4.5-8.8-7.6-14.3-9.1C11.8,39.1,11.6,38.9,11.6,38.4z M17.5,34.9
	c0-8.5,0-17.1,0-25.4l0-6.4c0-0.4,0-0.6,0.1-0.7c0,0,0,0,0.1,0c0.1,0,0.3,0.1,0.6,0.2c4.3,1.4,7.3,4.5,9.1,9c1,2.6,1.5,5.2,1.6,7.7
	c0,6.2,0,12.6,0,18.7c0,2.4,0,4.8,0,7.2v0c-1-2-2.1-3.5-3.2-4.7c-2-2.2-4.6-3.7-7.5-4.6C17.7,35.7,17.5,35.5,17.5,34.9z"/>
</svg>
