<?xml version="1.0" encoding="utf-8"?>
<!-- Generator: Adobe Illustrator 26.3.1, SVG Export Plug-In . SVG Version: 6.00 Build 0)  -->
<svg version="1.1" id="Layer_2_00000037659967289470972190000013705192179187502997_"
	 xmlns="http://www.w3.org/2000/svg" xmlns:xlink="http://www.w3.org/1999/xlink" x="0px" y="0px" viewBox="0 0 59.6 56.6"
	 style="enable-background:new 0 0 59.6 56.6;" xml:space="preserve">
<g>
	<path d="M55.9,25.7c0-0.1,0.2-0.3,0.4-0.5l0,0c2.2-2.3,3.3-5.1,3.2-8.3c-0.1-5.3-3.8-10.3-9-12.1c-3.9-1.4-7.7-1.1-11.3,0.7
		c-0.4,0.2-0.6,0.2-0.8-0.2c-1.7-2.2-4-3.7-6.8-4.6c-2.6-0.8-5.5-0.8-8.2,0c-2.9,0.9-5.2,2.6-6.8,4.9c-0.2,0.3-0.3,0.3-0.6,0.3
		c-1.1-0.3-2.1-0.4-3.2-0.3c-3.8,0-7,1.4-9.5,3.9c-2.1,2.1-3.3,5-3.3,8.1c-0.1,3,1,6,2.9,8.2c0.5,0.5,0.5,0.9,0.3,1.5
		c-1.2,3-1.2,6.1,0,9c1.4,3.4,3.8,5.9,7.3,7.4c4,1.7,7.9,1.7,11.6-0.2c0.9-0.4,1.5-0.4,2.4,0.1c2.2,1.3,4.6,1.9,7.1,1.9
		c0.1,0,0.3,0,0.4,0c2.1-0.1,4.2-0.6,6.1-1.7c0.3-0.2,0.6-0.2,1,0c3.5,1.7,7.2,2,10.9,0.7c3.5-1.2,6.3-3.9,7.5-7.5
		c1.2-3.6,0.8-7.4-1.3-10.6C56,26.1,55.9,25.8,55.9,25.7z M5.7,27.2c0.6-1.1,0.5-1.4-0.4-2.3c-1.6-1.6-2.6-3.6-2.9-5.8
		C1.8,14.9,4,10.7,7.9,8.9c1.7-0.8,3.3-1.1,5.3-1.1c0.9,0,2,0.2,2.9,0.5c1,0.3,1.4,0.2,1.9-0.8c2.1-3.5,5.3-5.3,9.6-5.2
		c4,0.1,7.2,1.8,9.5,5.1c0.8,1.2,1.2,1.2,2.4,0.5C44,5.2,49.4,5.7,53.4,9c3.4,2.9,4.7,7.6,3.2,11.5c-0.6,1.6-1.6,2.9-2.8,4
		c-0.8,0.7-0.9,1.2-0.2,2.1c2.5,3.3,3,6.8,1.4,10.4c-1.5,3.4-4.3,5.3-8.3,5.9c-2.6,0.3-5.1-0.2-7.4-1.5c-0.6-0.4-1.2-0.3-1.9,0.1
		c-3.4,2.2-7,2.4-11,0.6c-0.7-0.3-1.4-0.7-2.2-1.2c-0.3-0.2-0.7-0.3-1-0.3c-0.3,0-0.7,0.1-1,0.3c-3.2,1.9-6.6,2.3-10.3,1
		c-4.4-1.5-7.5-5.9-7.4-10.3C4.6,30,5,28.5,5.7,27.2z"/>
	<path d="M17,47.2c-1.4-1.1-3.8-1.1-5.2,0.1c-0.9,0.7-1.2,2-0.8,3c0.5,1.4,1.8,2.1,3.6,2.2c0.1,0,0.1,0,0.2,0c0.6,0,1.2-0.2,1.8-0.5
		c0.9-0.5,1.5-1.3,1.5-2.3C18.2,48.8,17.8,47.8,17,47.2z M15.8,49.5c0,0.2-0.1,0.3-0.3,0.5c-0.6,0.3-1.3,0.3-2,0
		c-0.3-0.1-0.3-0.3-0.3-0.4c0-0.3,0.1-0.5,0.3-0.6c0.3-0.2,0.6-0.2,0.9-0.2c0,0,0,0,0,0h0c0.4,0,0.8,0,1.1,0.3
		C15.7,49.2,15.8,49.3,15.8,49.5z"/>
	<path d="M9.3,51.6c-0.4,0-0.9,0.1-1.3,0.2C7,52.2,6.4,53.1,6.4,54c0,1,0.5,1.8,1.4,2.2c0.5,0.2,1,0.4,1.6,0.4
		c0.6,0,1.1-0.1,1.6-0.4c0.6-0.3,1-0.9,1.2-1.5c0.1-0.6,0-1.3-0.4-1.9C11,51.8,10,51.7,9.3,51.6z M8.8,54.1c0-0.1,0-0.1,0.4-0.1
		c0,0,0.1,0,0.1,0c0.3,0,0.4,0.1,0.4,0.1c0,0,0,0.1,0,0.1c0,0.1,0,0.1-0.3,0.1c0,0-0.1,0-0.1,0c0,0-0.1,0-0.1,0
		C8.8,54.2,8.8,54.2,8.8,54.1z"/>
</g>
</svg>
