<?xml version="1.0" encoding="utf-8"?>
<!-- Generator: Adobe Illustrator 26.3.1, SVG Export Plug-In . SVG Version: 6.00 Build 0)  -->
<svg version="1.1" id="Layer_2_00000037659967289470972190000013705192179187502997_"
	 xmlns="http://www.w3.org/2000/svg" xmlns:xlink="http://www.w3.org/1999/xlink" x="0px" y="0px" viewBox="0 0 114 114"
	 style="enable-background:new 0 0 114 114;" xml:space="preserve">
<g>
	<g>
		<path d="M8.3,0l3.3,1.5l-7,15l9.3,4.3l-1.3,2.8L0,17.8L8.3,0z"/>
		<path d="M28.6,29.3L27.1,32l-12.7-7.4l9.8-17l12.4,7.2L35,17.5l-9.2-5.3l-2.6,4.4l8.2,4.7l-1.5,2.6l-8.2-4.7L19,23.8L28.6,29.3z"
			/>
		<path d="M42.6,37.4l-7.9-5.7l-4.2,2.5l-3-2.2l18.6-10.7l2.9,2.1l-4.3,21.1l-3.1-2.2L42.6,37.4z M43.3,34.4l2-9.1l-8,4.8L43.3,34.4
			z"/>
		<path d="M55.3,54.1l0.8-6.9c-0.1-0.1-0.3-0.3-0.6-0.5l-3.3-2.9L48.4,48l-2.7-2.4l13.1-14.6l6,5.4c1.3,1.1,2.2,2.3,2.7,3.6
			c0.6,1.3,0.7,2.5,0.6,3.7c-0.2,1.2-0.8,2.4-1.7,3.4c-1,1.1-2.1,1.8-3.3,2.1c-1.2,0.3-2.5,0.2-3.9-0.3l-0.9,7.8L55.3,54.1z
			 M64.6,41.6c-0.2-1-0.8-2.1-2-3.2l-3.2-2.8l-5.2,5.8l3.2,2.8c1.2,1.1,2.3,1.6,3.4,1.6c1.1,0,2-0.4,2.9-1.3
			C64.5,43.7,64.8,42.7,64.6,41.6z"/>
		<path d="M86.3,58.5L71.7,71.6l-2-2.2l2.7-16.9l-9.9,8.9l-2.4-2.7l14.6-13.1l2,2.2L74,64.7l9.9-8.9L86.3,58.5z"/>
		<path d="M89.9,63.3l2.2,2.9L76.5,78.1l-2.2-2.9L89.9,63.3z"/>
		<path d="M105.3,85.7L88.8,96.3l-1.6-2.5l5.3-16.3l-11.2,7.2l-2-3L95.8,71l1.6,2.5l-5.3,16.3l11.2-7.2L105.3,85.7z"/>
		<path d="M105.8,107.5l1.5,3.1l-7,3.5c-1.2-0.5-2.2-1.3-3.2-2.3c-1-1-1.8-2.2-2.4-3.4c-0.9-1.8-1.3-3.6-1.2-5.4
			c0.1-1.8,0.6-3.5,1.5-5c1-1.5,2.3-2.7,4-3.5c1.7-0.9,3.5-1.2,5.2-1.1c1.8,0.1,3.4,0.7,4.9,1.8c1.5,1.1,2.7,2.5,3.6,4.3
			c0.7,1.5,1.2,2.9,1.3,4.4c0.1,1.4-0.1,2.8-0.6,4.1l-3-1.1c0.7-2,0.5-3.9-0.4-5.8c-0.6-1.2-1.4-2.2-2.4-2.9c-1-0.7-2.1-1.1-3.3-1.2
			c-1.2-0.1-2.4,0.2-3.6,0.8c-1.2,0.6-2.1,1.4-2.8,2.4c-0.7,1-1,2.1-1.1,3.4c-0.1,1.2,0.2,2.4,0.8,3.7c0.7,1.4,1.6,2.4,2.7,3.2
			L105.8,107.5z"/>
	</g>
</g>
</svg>
