<?xml version="1.0" encoding="utf-8"?>
<!-- Generator: Adobe Illustrator 26.3.1, SVG Export Plug-In . SVG Version: 6.00 Build 0)  -->
<svg version="1.1" id="Layer_2_00000037659967289470972190000013705192179187502997_"
	 xmlns="http://www.w3.org/2000/svg" xmlns:xlink="http://www.w3.org/1999/xlink" x="0px" y="0px" viewBox="0 0 83.5 175.7"
	 style="enable-background:new 0 0 83.5 175.7;" xml:space="preserve">
<g>
	<g>
		<path d="M13.9,172.2c-0.7,1.2-1.7,2-2.9,2.6c-1.2,0.6-2.5,0.9-3.9,0.8c-1.4-0.1-2.7-0.5-3.8-1.3c-1.1-0.8-1.9-1.8-2.5-3
			c-0.6-1.2-0.8-2.6-0.7-4.1c0.1-1.2,0.4-2.3,0.8-3.2c0.5-1,1.1-1.8,2-2.4l1.5,1.9c-1.2,1-1.9,2.3-2,3.8c-0.1,1,0.1,1.9,0.5,2.7
			c0.4,0.8,1,1.5,1.7,2c0.8,0.5,1.6,0.8,2.6,0.8s1.9-0.1,2.7-0.5c0.8-0.4,1.5-1,2-1.7c0.5-0.8,0.8-1.7,0.8-2.7
			c0.1-1.6-0.4-2.9-1.5-4l1.8-1.7c0.8,0.7,1.3,1.6,1.7,2.6s0.5,2.1,0.4,3.3C15,169.8,14.6,171.1,13.9,172.2z"/>
		<path d="M15,157.7c-0.8,1.1-1.8,1.9-3,2.5c-1.2,0.5-2.6,0.7-4,0.5c-1.4-0.2-2.7-0.7-3.7-1.5c-1.1-0.8-1.8-1.9-2.3-3.2
			c-0.5-1.3-0.6-2.7-0.5-4.1s0.7-2.8,1.5-3.9c0.8-1.1,1.8-1.9,3-2.5s2.6-0.7,4-0.5s2.7,0.7,3.7,1.5s1.8,1.9,2.3,3.2
			c0.5,1.3,0.6,2.7,0.5,4.1S15.8,156.6,15,157.7z M13.8,150.8c-0.3-0.8-0.9-1.5-1.6-2.1c-0.7-0.5-1.6-0.9-2.6-1
			c-1-0.1-1.9,0-2.7,0.3c-0.8,0.3-1.5,0.9-2.1,1.6c-0.5,0.7-0.9,1.6-1,2.5c-0.1,1,0,1.9,0.3,2.7s0.9,1.5,1.6,2.1s1.6,0.9,2.6,1
			c1,0.1,1.9,0,2.7-0.3c0.8-0.3,1.5-0.9,2.1-1.6s0.9-1.6,1-2.5C14.3,152.5,14.2,151.6,13.8,150.8z"/>
		<path d="M3.3,140.8l0.5-2.7l12.2,2.2l1.4-7.6l2.3,0.4l-1.9,10.2L3.3,140.8z"/>
		<path d="M5.8,128.1l0.6-2.7l12.1,2.8l1.7-7.5l2.2,0.5l-2.4,10.1L5.8,128.1z"/>
		<path d="M22.3,109.4l-2,7.1l2.9,2.3l-0.8,2.7L10.1,111l0.8-2.6l16-2.3l-0.8,2.7L22.3,109.4z M20,109.7l-6.9,0.9l5.4,4.4L20,109.7z
			"/>
		<path d="M25.5,91.1c0.7-0.2,1.6-0.2,2.4,0.1c1.2,0.4,2,1.2,2.3,2.4s0.2,2.6-0.5,4.4l-2.5,6.9l-13.8-4.9l2.3-6.5
			c0.6-1.6,1.4-2.8,2.3-3.4c1-0.7,2-0.8,3.1-0.4c0.7,0.2,1.2,0.6,1.7,1.1c0.4,0.5,0.7,1.1,0.8,1.7C24.1,91.8,24.7,91.3,25.5,91.1z
			 M16.4,98.1l3.8,1.4l1.3-3.6c0.3-0.9,0.4-1.6,0.3-2.2c-0.2-0.6-0.5-1-1.2-1.2c-0.6-0.2-1.2-0.2-1.7,0.2c-0.5,0.4-0.9,1-1.2,1.9
			L16.4,98.1z M26.7,93.7c-1.3-0.5-2.4,0.3-3.1,2.3l-1.5,4.2l4,1.4l1.5-4.2C28.4,95.4,28.1,94.2,26.7,93.7z"/>
		<path d="M33,87.4c-1.1,0.8-2.3,1.4-3.6,1.5c-1.3,0.2-2.7,0-4-0.6c-1.3-0.6-2.4-1.4-3.2-2.5c-0.8-1.1-1.2-2.3-1.4-3.7
			c-0.1-1.4,0.1-2.7,0.7-4.1c0.6-1.4,1.4-2.5,2.5-3.3c1.1-0.8,2.3-1.4,3.6-1.5c1.3-0.2,2.7,0,4,0.6c1.3,0.6,2.4,1.4,3.2,2.5
			c0.8,1.1,1.2,2.3,1.4,3.7c0.1,1.4-0.1,2.7-0.7,4.1C34.9,85.4,34.1,86.5,33,87.4z M33.7,80.4c-0.1-0.9-0.4-1.7-1-2.4
			c-0.5-0.7-1.3-1.3-2.2-1.7c-0.9-0.4-1.8-0.5-2.7-0.4c-0.9,0.1-1.7,0.4-2.4,1c-0.7,0.5-1.3,1.3-1.7,2.2s-0.5,1.8-0.4,2.7
			c0.1,0.9,0.4,1.7,1,2.4c0.5,0.7,1.3,1.3,2.2,1.7c0.9,0.4,1.8,0.5,2.7,0.4c0.9-0.1,1.7-0.4,2.4-1c0.7-0.5,1.3-1.3,1.7-2.2
			C33.7,82.2,33.8,81.3,33.7,80.4z"/>
		<path d="M43.8,65.9l-5.2,0.7c0,0.1-0.1,0.3-0.2,0.5l-1.5,3l3.8,1.9l-1.2,2.4l-13.1-6.6l2.7-5.4c0.6-1.1,1.3-2,2.1-2.7
			c0.8-0.7,1.7-1,2.6-1.1c0.9-0.1,1.9,0.1,2.8,0.6c1,0.5,1.7,1.2,2.2,2c0.5,0.8,0.7,1.8,0.5,2.9l5.8-0.8L43.8,65.9z M33,61.5
			c-0.7,0.3-1.4,1-1.9,2.1l-1.4,2.8l5.2,2.6l1.4-2.8c0.5-1.1,0.7-2,0.5-2.8c-0.2-0.8-0.7-1.4-1.5-1.8C34.5,61.3,33.7,61.2,33,61.5z"
			/>
		<path d="M48.2,51.2l-3.7,6.4l2.2,3L45.3,63l-9.4-13.1l1.3-2.3l16,1.6l-1.4,2.5L48.2,51.2z M45.9,51l-6.9-0.8l4.2,5.6L45.9,51z"/>
		<path d="M45,39.4l-2.7,4.1l-1.9-1.3l6.8-10.5l1.9,1.3l-2.7,4.1l10.4,6.8l-1.5,2.3L45,39.4z"/>
		<path d="M48.6,29.9l1.6-2.2l12,8.5l-1.6,2.2L48.6,29.9z"/>
		<path d="M65.3,30.4c-1.3,0.6-2.5,0.8-3.9,0.6s-2.6-0.7-3.7-1.6c-1.1-0.9-1.9-1.9-2.4-3.2c-0.5-1.2-0.6-2.5-0.4-3.9
			c0.2-1.4,0.8-2.6,1.7-3.8c0.9-1.2,2-2.1,3.3-2.6c1.3-0.6,2.5-0.8,3.9-0.6c1.3,0.2,2.6,0.7,3.7,1.6c1.1,0.9,2,1.9,2.4,3.2
			c0.5,1.2,0.6,2.5,0.4,3.9c-0.2,1.4-0.8,2.6-1.7,3.8C67.7,28.9,66.6,29.8,65.3,30.4z M67.8,23.8c0.1-0.9,0-1.8-0.3-2.6
			c-0.4-0.8-0.9-1.6-1.7-2.2c-0.8-0.6-1.6-1-2.5-1.1c-0.9-0.1-1.8,0-2.6,0.3c-0.8,0.4-1.5,0.9-2.1,1.7c-0.6,0.8-1,1.6-1.1,2.5
			c-0.1,0.9,0,1.8,0.3,2.6c0.4,0.8,0.9,1.6,1.7,2.2c0.8,0.6,1.6,1,2.5,1.1s1.8,0,2.6-0.3c0.8-0.4,1.5-0.9,2.1-1.7
			C67.3,25.5,67.7,24.7,67.8,23.8z"/>
		<path d="M72.4,0l11,9.7L82,11.4l-12.8-0.5l7.5,6.6l-1.8,2l-11-9.7l1.5-1.7l12.8,0.5L70.6,2L72.4,0z"/>
	</g>
</g>
</svg>
