<?xml version="1.0" encoding="utf-8"?>
<!-- Generator: Adobe Illustrator 26.3.1, SVG Export Plug-In . SVG Version: 6.00 Build 0)  -->
<svg version="1.1" id="Layer_2_00000037659967289470972190000013705192179187502997_"
	 xmlns="http://www.w3.org/2000/svg" xmlns:xlink="http://www.w3.org/1999/xlink" x="0px" y="0px" viewBox="0 0 134.1 134.6"
	 style="enable-background:new 0 0 134.1 134.6;" xml:space="preserve">
<g>
	<g>
		<path d="M128.9,25.7c0-0.1,0.2-0.3,0.4-0.5l0,0c2.2-2.3,3.3-5.1,3.2-8.3c-0.1-5.3-3.8-10.3-9-12.1c-3.9-1.4-7.7-1.1-11.3,0.7
			c-0.4,0.2-0.6,0.2-0.8-0.2c-1.7-2.2-4-3.7-6.8-4.6c-2.6-0.8-5.5-0.8-8.2,0c-2.9,0.9-5.2,2.6-6.8,4.9c-0.2,0.3-0.3,0.3-0.6,0.3
			c-1.1-0.3-2.1-0.4-3.2-0.3c-3.8,0-7,1.4-9.5,3.9c-2.1,2.1-3.3,5-3.3,8.1c-0.1,3,1,6,2.9,8.2c0.5,0.5,0.5,0.9,0.3,1.5
			c-1.2,3-1.2,6.1,0,9c1.4,3.4,3.8,5.9,7.3,7.4c4,1.7,7.9,1.7,11.6-0.2c0.9-0.4,1.5-0.4,2.4,0.1c2.2,1.3,4.6,1.9,7.1,1.9
			c0.1,0,0.3,0,0.4,0c2.1-0.1,4.2-0.6,6.1-1.7c0.3-0.2,0.6-0.2,1,0c3.5,1.7,7.2,2,10.9,0.7c3.5-1.2,6.3-3.9,7.5-7.5
			c1.2-3.6,0.8-7.4-1.3-10.6C129,26.1,128.9,25.8,128.9,25.7z M78.7,27.2c0.6-1.1,0.5-1.4-0.4-2.3c-1.6-1.6-2.6-3.6-2.9-5.8
			c-0.6-4.3,1.6-8.4,5.5-10.3c1.7-0.8,3.3-1.1,5.3-1.1c0.9,0,2,0.2,2.9,0.5c1,0.3,1.4,0.2,1.9-0.8c2.1-3.5,5.3-5.3,9.6-5.2
			c4,0.1,7.2,1.8,9.5,5.1c0.8,1.2,1.2,1.2,2.4,0.5c4.4-2.7,9.8-2.2,13.8,1.1c3.4,2.9,4.7,7.6,3.2,11.5c-0.6,1.6-1.6,2.9-2.8,4
			c-0.8,0.7-0.9,1.2-0.2,2.1c2.5,3.3,3,6.8,1.4,10.4c-1.5,3.4-4.3,5.3-8.3,5.9c-2.6,0.3-5.1-0.2-7.4-1.5c-0.6-0.4-1.2-0.3-1.9,0.1
			c-3.4,2.2-7,2.4-11,0.6c-0.7-0.3-1.4-0.7-2.2-1.2c-0.3-0.2-0.7-0.3-1-0.3c-0.3,0-0.7,0.1-1,0.3c-3.2,1.9-6.6,2.3-10.3,1
			c-4.4-1.5-7.5-5.9-7.4-10.3C77.7,30,78,28.5,78.7,27.2z"/>
		<path d="M90,47.2c-1.4-1.1-3.8-1.1-5.2,0.1c-0.9,0.7-1.2,2-0.8,3c0.5,1.4,1.8,2.1,3.6,2.2c0.1,0,0.1,0,0.2,0
			c0.6,0,1.2-0.2,1.8-0.5c0.9-0.5,1.5-1.3,1.5-2.3C91.2,48.8,90.8,47.8,90,47.2z M88.8,49.5c0,0.2-0.1,0.3-0.3,0.5
			c-0.6,0.3-1.3,0.3-2,0c-0.3-0.1-0.3-0.3-0.3-0.4c0-0.3,0.1-0.5,0.3-0.6c0.3-0.2,0.6-0.2,0.9-0.2c0,0,0,0,0,0h0
			c0.4,0,0.8,0,1.1,0.3C88.7,49.2,88.8,49.3,88.8,49.5z"/>
		<path d="M82.3,51.6c-0.4,0-0.9,0.1-1.3,0.2c-0.9,0.3-1.6,1.2-1.6,2.1c0,1,0.5,1.8,1.4,2.2c0.5,0.2,1,0.4,1.6,0.4
			c0.6,0,1.1-0.1,1.6-0.4c0.6-0.3,1-0.9,1.2-1.5c0.1-0.6,0-1.3-0.4-1.9C84,51.8,83,51.7,82.3,51.6z M81.8,54.1c0-0.1,0-0.1,0.4-0.1
			c0,0,0.1,0,0.1,0c0.3,0,0.4,0.1,0.4,0.1c0,0,0,0.1,0,0.1c0,0.1,0,0.1-0.3,0.1c0,0-0.1,0-0.1,0c0,0-0.1,0-0.1,0
			C81.8,54.2,81.8,54.2,81.8,54.1z"/>
	</g>
	<g>
		<g>
			<path d="M4.8,21.3l3.8-5.8c-0.1-0.1-0.2-0.4-0.3-0.7l-1.6-4.1l-5.3,2.1L0,9.4l18.2-7.3l3,7.5c0.6,1.6,0.9,3.1,0.9,4.4
				s-0.4,2.6-1.2,3.6c-0.7,1-1.8,1.8-3.1,2.3c-1.4,0.5-2.7,0.7-3.9,0.4c-1.3-0.3-2.4-0.9-3.4-2L6.2,25L4.8,21.3z M18.7,14.3
				c0.3-1,0.2-2.3-0.4-3.7l-1.6-4L9.4,9.6l1.6,4c0.6,1.5,1.3,2.5,2.3,3c0.9,0.5,2,0.5,3.1,0.1C17.6,16.1,18.4,15.4,18.7,14.3z"/>
			<path d="M17.7,40.8L15,42.3L8.3,29.2l17.4-9l6.6,12.7l-2.7,1.4l-4.9-9.5l-4.5,2.3l4.4,8.4l-2.7,1.4l-4.4-8.4L12.7,31L17.7,40.8z"
				/>
			<path d="M33.5,40.6l-5,3.2l5.1,8L31,53.5l-5.1-8l-6.3,4l-2-3.1l16.5-10.6l7.7,12l-2.6,1.6L33.5,40.6z"/>
			<path d="M43.4,50.1l2.2,2.9L32.6,63.1l6.3,8.1l-2.4,1.9l-8.5-11L43.4,50.1z"/>
			<path d="M51.1,84.7l-2.2,2.1l-10-10.8l14.4-13.3L63,73.1l-2.2,2.1l-7.2-7.8l-3.7,3.5l6.4,6.9l-2.2,2l-6.4-6.9l-4,3.7L51.1,84.7z"
				/>
			<path d="M55.8,91.9c-0.6-1.7-0.8-3.4-0.4-5.2c0.3-1.7,1.1-3.3,2.4-4.8c1.3-1.4,2.8-2.4,4.5-3c1.7-0.5,3.4-0.6,5.2-0.2
				c1.8,0.4,3.4,1.3,4.9,2.6c1.2,1.1,2.1,2.2,2.7,3.5c0.6,1.3,0.9,2.6,0.9,4.1L72.8,89c0-2.1-0.8-3.8-2.4-5.2
				c-1-0.9-2.1-1.5-3.3-1.7c-1.2-0.3-2.3-0.2-3.5,0.2c-1.1,0.4-2.2,1.1-3,2.1c-0.9,1-1.4,2.1-1.7,3.3c-0.2,1.2-0.2,2.3,0.2,3.5
				c0.4,1.1,1.1,2.2,2.1,3.1c1.6,1.4,3.4,2,5.5,1.7l0.3,3.2c-1.4,0.2-2.8,0-4.1-0.4c-1.4-0.5-2.7-1.2-3.9-2.3
				C57.5,95.1,56.5,93.6,55.8,91.9z"/>
			<path d="M81.3,92.9l-5.2-3.8l1.8-2.5l13.4,9.8l-1.8,2.5l-5.2-3.8l-9.8,13.3l-2.9-2.2L81.3,92.9z"/>
			<path d="M93.2,97.4l3.1,2l-10.5,16.5l-3.1-2L93.2,97.4z"/>
			<path d="M115.4,110l-9.2,17.3l-2.6-1.4l-3.3-16.8l-6.2,11.7l-3.2-1.7l9.2-17.3l2.6,1.4l3.3,16.8l6.2-11.7L115.4,110z"/>
			<path d="M128.2,125.6l3.2,1.3l-2.9,7.3c-1.2,0.4-2.6,0.5-4,0.4c-1.4-0.1-2.8-0.4-4.1-0.9c-1.9-0.7-3.4-1.8-4.5-3.2
				c-1.2-1.4-1.9-3-2.2-4.7c-0.3-1.8-0.1-3.5,0.6-5.3c0.7-1.8,1.8-3.2,3.2-4.3c1.4-1.1,3-1.7,4.9-2c1.8-0.2,3.7,0.1,5.5,0.8
				c1.5,0.6,2.8,1.4,3.9,2.4c1.1,1,1.8,2.2,2.3,3.5l-3,1.2c-0.8-1.9-2.2-3.3-4.2-4.1c-1.3-0.5-2.5-0.7-3.7-0.5
				c-1.2,0.1-2.3,0.6-3.2,1.3c-0.9,0.7-1.7,1.7-2.2,3c-0.5,1.2-0.6,2.4-0.5,3.6c0.2,1.2,0.7,2.3,1.4,3.2c0.8,1,1.8,1.7,3.1,2.2
				c1.4,0.6,2.8,0.7,4.1,0.5L128.2,125.6z"/>
		</g>
	</g>
</g>
</svg>
