<?xml version="1.0" encoding="utf-8"?>
<!-- Generator: Adobe Illustrator 26.3.1, SVG Export Plug-In . SVG Version: 6.00 Build 0)  -->
<svg version="1.1" id="Layer_2_00000037659967289470972190000013705192179187502997_"
	 xmlns="http://www.w3.org/2000/svg" xmlns:xlink="http://www.w3.org/1999/xlink" x="0px" y="0px" viewBox="0 0 77.7 123.8"
	 style="enable-background:new 0 0 77.7 123.8;" xml:space="preserve">
<g>
	<g>
		<g>
			<g>
				<path d="M12.7,10.8l-4.4,0.9l1.5,6.9l-2.3,0.5l-1.5-6.9l-5.5,1.2L0,10.7l14.4-3l2.2,10.5l-2.2,0.5L12.7,10.8z"/>
				<path d="M8,34.5L5.8,35L3,24.4l14.2-3.7L20,31l-2.2,0.6l-2-7.7l-3.7,1l1.8,6.9l-2.2,0.6l-1.8-6.9l-3.9,1L8,34.5z"/>
				<path d="M12.4,48.4l-2.2,0.7L6.9,38.6l14-4.5l3.3,10.2L22,45l-2.4-7.6l-3.6,1.2l2.2,6.8L15.9,46l-2.2-6.8l-3.9,1.2L12.4,48.4z"
					/>
				<path d="M25.2,47.4l2.3,6c0.6,1.5,0.8,2.9,0.6,4.2c-0.1,1.4-0.6,2.5-1.4,3.6c-0.8,1-1.9,1.8-3.2,2.3c-1.4,0.5-2.7,0.7-4,0.4
					s-2.4-0.8-3.4-1.7c-1-0.9-1.8-2.1-2.4-3.6l-2.3-6L25.2,47.4z M15.9,57.8c0.4,1,0.9,1.8,1.6,2.4c0.7,0.6,1.5,1,2.3,1.1
					c0.9,0.1,1.8,0,2.7-0.3c0.9-0.4,1.7-0.9,2.2-1.6s0.9-1.5,1-2.4c0.1-0.9-0.1-1.9-0.4-2.9L24,50.8l-9.4,3.6L15.9,57.8z"/>
				<path d="M29,78.2c-0.4,0.7-1,1.2-1.8,1.6c-1.2,0.5-2.3,0.5-3.3-0.1c-1-0.6-1.9-1.8-2.7-3.5l-3-6.6l13.4-6.1l2.9,6.3
					c0.7,1.6,1,2.9,0.7,4.1c-0.2,1.1-0.9,1.9-2,2.4c-0.7,0.3-1.3,0.4-2,0.3c-0.6-0.1-1.2-0.3-1.8-0.7C29.5,76.8,29.4,77.5,29,78.2z
					 M26.3,77.2c1.3-0.6,1.5-1.8,0.6-3.8l-1.8-4l-3.9,1.8l1.8,4C23.9,77.1,25,77.8,26.3,77.2z M30.7,66.9L27,68.6l1.6,3.5
					c0.4,0.9,0.9,1.5,1.4,1.8c0.5,0.3,1.1,0.3,1.7,0.1c0.6-0.3,1-0.7,1.1-1.3c0.1-0.6,0-1.3-0.4-2.2L30.7,66.9z"/>
				<path d="M32.7,91.6l-3.4-6.5l-3.7,0.3l-1.3-2.5l16.1-1l1.3,2.4L31.7,97l-1.3-2.5L32.7,91.6z M34.1,89.8l4.4-5.5l-7,0.6
					L34.1,89.8z"/>
				<path d="M35,101.1c-0.1-1.4,0.2-2.6,0.9-3.8c0.6-1.2,1.6-2.1,2.8-2.9c1.2-0.7,2.5-1.1,3.9-1.1c1.3,0,2.6,0.3,3.8,1
					c1.2,0.7,2.1,1.7,2.9,2.9c0.6,1,1,2.1,1.2,3.1c0.2,1.1,0.1,2.1-0.3,3.1l-2.3-0.7c0.4-1.5,0.3-2.9-0.5-4.3c-0.5-0.9-1.2-1.5-2-2
					c-0.8-0.5-1.6-0.7-2.5-0.7s-1.8,0.3-2.6,0.8c-0.9,0.5-1.5,1.2-1.9,2c-0.4,0.8-0.6,1.6-0.6,2.5c0,0.9,0.3,1.8,0.8,2.7
					c0.8,1.3,2,2.2,3.5,2.5l-0.5,2.4c-1-0.2-2-0.6-2.9-1.2c-0.9-0.6-1.6-1.5-2.2-2.5C35.5,103.8,35.1,102.4,35,101.1z"/>
				<path d="M49.2,113.5l-3.3-0.6l-3.1,2.1l-1.5-2.3l12.1-8.3l1.5,2.3l-6.2,4.2l10.3,1.8l1.7,2.5l-8.9-1.4l-3,10l-1.8-2.6
					L49.2,113.5z"/>
			</g>
		</g>
		<g>
			<g>
				<path d="M23.3,13.2l-2.2,0.4L18.9,2.8L33.4,0l2.1,10.5L33.2,11l-1.5-7.8l-3.8,0.7l1.4,7l-2.2,0.4l-1.4-7l-4,0.8L23.3,13.2z"/>
				<path d="M34.6,16.9L30.3,18l1.8,6.9l-2.2,0.6l-1.7-6.9L22.6,20l-0.7-2.6l14.2-3.6l2.6,10.4l-2.2,0.6L34.6,16.9z"/>
				<path d="M38.2,29.9l-4.3,1.3L36,38l-2.2,0.7l-2.1-6.8l-5.4,1.7l-0.8-2.6l14-4.4l3.2,10.2l-2.2,0.7L38.2,29.9z"/>
				<path d="M35.8,53.9l-2.1,0.8l-3.8-10.3l13.8-5.1l3.7,10.1l-2.1,0.8l-2.8-7.5l-3.6,1.3l2.5,6.7l-2.1,0.8l-2.5-6.7l-3.8,1.4
					L35.8,53.9z"/>
				<path d="M36.9,60.4c0.1-1.4,0.6-2.6,1.3-3.7s1.8-1.9,3.1-2.5c1.3-0.6,2.6-0.8,4-0.6c1.3,0.2,2.5,0.7,3.6,1.5
					c1.1,0.8,1.9,1.9,2.5,3.3c0.5,1.1,0.7,2.2,0.7,3.3s-0.2,2.1-0.7,3l-2.2-0.9c0.6-1.4,0.6-2.9,0-4.3c-0.4-0.9-1-1.7-1.7-2.2
					c-0.7-0.6-1.5-0.9-2.4-1c-0.9-0.1-1.8,0.1-2.7,0.5c-0.9,0.4-1.6,1-2.2,1.7c-0.5,0.7-0.8,1.5-0.9,2.4c-0.1,0.9,0.1,1.8,0.5,2.7
					c0.6,1.4,1.7,2.4,3.2,2.9l-0.8,2.3c-1-0.3-1.9-0.8-2.7-1.6c-0.8-0.7-1.4-1.7-1.9-2.8C37,63.1,36.8,61.8,36.9,60.4z"/>
				<path d="M54,69.7l-2.2-4.3l2.1-1l5.6,11.1l-2.1,1l-2.2-4.3l-11.1,5.6l-1.2-2.4L54,69.7z"/>
				<path d="M60.5,77.1l1.3,2.4L49,86.6l-1.3-2.4L60.5,77.1z"/>
				<path d="M70.7,94.3l-15.9,2.2l-1.4-2.3l9.2-13.2l1.5,2.5L57,93.7L69.3,92L70.7,94.3z"/>
				<path d="M67.6,111.6l-1.9,1.3l-6.3-9.1l12.1-8.4l6.1,8.8l-1.9,1.3L71.2,99l-3.1,2.2l4,5.8l-1.8,1.3l-4-5.8l-3.3,2.3L67.6,111.6z
					"/>
			</g>
		</g>
	</g>
</g>
</svg>
