<?xml version="1.0" encoding="utf-8"?>
<!-- Generator: Adobe Illustrator 26.3.1, SVG Export Plug-In . SVG Version: 6.00 Build 0)  -->
<svg version="1.1" id="Layer_2_00000037659967289470972190000013705192179187502997_"
	 xmlns="http://www.w3.org/2000/svg" xmlns:xlink="http://www.w3.org/1999/xlink" x="0px" y="0px" viewBox="0 0 156.2 88.5"
	 style="enable-background:new 0 0 156.2 88.5;" xml:space="preserve">
<g>
	<g>
		<g>
			<g>
				<path d="M9.8,44l2.3-1.5L19,52.8l6.4-4.3l1.3,1.9L18,56.2L9.8,44z"/>
				<path d="M36.6,41.7l1.2,2l-9.5,5.7l-7.6-12.6l9.2-5.5l1.2,2l-6.9,4.1l2,3.3l6.1-3.7l1.2,1.9l-6.1,3.7l2.1,3.5L36.6,41.7z"/>
				<path d="M47.1,34.8l-6.5,3.4l0.3,3.7l-2.5,1.3l-1-16.1l2.4-1.3l12.7,9.9L50,37.2L47.1,34.8z M45.3,33.4L39.8,29l0.6,7L45.3,33.4
					z"/>
				<path d="M62.8,31.1l-4.5-2.7c-0.1,0.1-0.3,0.2-0.5,0.3l-3,1.4l1.8,3.9L54,35.1l-6.1-13.4l5.5-2.5c1.2-0.5,2.3-0.8,3.3-0.8
					c1,0,1.9,0.2,2.7,0.7c0.8,0.5,1.4,1.2,1.9,2.2c0.5,1,0.6,2,0.5,2.9c-0.2,1-0.6,1.8-1.4,2.6l5.1,3L62.8,31.1z M57,21
					c-0.8-0.2-1.7-0.1-2.8,0.4l-2.9,1.3l2.4,5.3l2.9-1.3c1.1-0.5,1.8-1.1,2.1-1.8c0.3-0.7,0.3-1.5-0.1-2.4S57.8,21.2,57,21z"/>
				<path d="M74.7,10.5L80,24.2L77.9,25l-11.2-6.3l3.6,9.3l-2.5,1l-5.3-13.7l2.1-0.8l11.2,6.3l-3.6-9.3L74.7,10.5z"/>
				<path d="M78.9,9.1l2.6-0.9l4.7,13.9L83.6,23L78.9,9.1z"/>
				<path d="M98.2,3.1l4.1,14.1l-2.2,0.6l-10.6-7.3l2.8,9.6l-2.6,0.8L85.7,6.8l2.2-0.6l10.6,7.3l-2.8-9.6L98.2,3.1z"/>
				<path d="M114.1,6.8l2.5-0.6l1.3,5.7c-0.6,0.8-1.4,1.4-2.3,1.9c-0.9,0.5-1.9,0.9-2.9,1.2c-1.5,0.3-2.9,0.3-4.2-0.1
					c-1.3-0.4-2.4-1-3.4-2c-0.9-1-1.5-2.2-1.9-3.6c-0.3-1.4-0.3-2.7,0.1-4c0.4-1.3,1.1-2.4,2.2-3.3c1-0.9,2.3-1.5,3.8-1.9
					c1.2-0.3,2.3-0.3,3.4-0.1c1.1,0.2,2,0.6,2.9,1.2l-1.3,2c-1.3-0.8-2.8-1.1-4.3-0.7c-1,0.2-1.9,0.6-2.6,1.2
					c-0.7,0.6-1.2,1.3-1.4,2.2s-0.3,1.8-0.1,2.8c0.2,1,0.6,1.8,1.2,2.4s1.4,1.1,2.2,1.4c0.9,0.3,1.8,0.3,2.8,0.1
					c1.1-0.3,2-0.7,2.8-1.4L114.1,6.8z"/>
			</g>
		</g>
		<g>
			<g>
				<path d="M16.4,79.7l1.5,1.8l-8.5,7L0,77.1l8.3-6.8L9.7,72l-6.2,5.1l2.4,3l5.5-4.5l1.4,1.7l-5.5,4.5l2.6,3.1L16.4,79.7z"/>
				<path d="M22.1,60.1L30.7,72l-1.8,1.3L16.5,70l5.8,8.1l-2.2,1.6l-8.6-11.9l1.8-1.3l12.4,3.3l-5.8-8.1L22.1,60.1z"/>
				<path d="M37.2,50.4l2.4,15.8l-2.3,1.4l-13.3-9l2.5-1.6l10.2,7l-1.9-12.2L37.2,50.4z"/>
				<path d="M39,49.5l2.4-1.4l7.3,12.8l-2.4,1.4L39,49.5z"/>
				<path d="M60.5,54.6l-4.6-2.4c-0.1,0.1-0.3,0.2-0.5,0.3l-2.9,1.5l2,3.8L52,59l-6.7-13.1l5.4-2.8c1.1-0.6,2.2-0.9,3.2-1
					c1-0.1,2,0.1,2.8,0.6c0.8,0.5,1.5,1.2,2,2.1c0.5,1,0.7,2,0.6,2.9c-0.1,1-0.5,1.8-1.2,2.7l5.2,2.7L60.5,54.6z M54.3,44.7
					c-0.8-0.2-1.7,0-2.8,0.6l-2.8,1.5l2.7,5.2l2.8-1.5c1.1-0.5,1.7-1.2,2.1-1.9c0.3-0.7,0.3-1.5-0.2-2.4
					C55.7,45.3,55.1,44.8,54.3,44.7z"/>
				<path d="M67.7,50.3c-1.4-0.1-2.6-0.6-3.7-1.3c-1.1-0.8-1.9-1.8-2.5-3.1c-0.6-1.3-0.8-2.6-0.6-4c0.2-1.3,0.7-2.5,1.5-3.6
					c0.8-1.1,2-1.9,3.3-2.5c1.4-0.6,2.7-0.8,4.1-0.7c1.4,0.1,2.6,0.6,3.7,1.3c1.1,0.8,1.9,1.8,2.5,3.1c0.6,1.3,0.8,2.6,0.6,4
					c-0.2,1.3-0.7,2.5-1.5,3.6c-0.8,1.1-2,1.9-3.3,2.5S69.1,50.4,67.7,50.3z M73,45.7c0.5-0.7,0.9-1.5,1-2.4
					c0.1-0.9-0.1-1.8-0.4-2.7c-0.4-0.9-1-1.6-1.7-2.2c-0.7-0.5-1.5-0.9-2.4-1c-0.9-0.1-1.8,0.1-2.7,0.5c-0.9,0.4-1.6,0.9-2.2,1.7
					c-0.5,0.7-0.9,1.5-1,2.4c-0.1,0.9,0.1,1.8,0.4,2.7c0.4,0.9,1,1.6,1.7,2.2c0.7,0.5,1.5,0.9,2.4,1s1.8-0.1,2.7-0.5
					C71.8,47,72.5,46.4,73,45.7z"/>
				<path d="M88.9,27.1l4.9,13.8l-2.1,0.8l-11-6.7l3.3,9.4l-2.6,0.9l-4.9-13.8l2.1-0.8l11,6.7L86.3,28L88.9,27.1z"/>
				<path d="M110.3,36.2l-2.6-9.4l-2.5,9.1l-1.2,0.3l-6.8-6.4l2.6,9.3l-2.5,0.7l-3.9-14.2l2.2-0.6l8.2,7.8l2.9-10.9l2.2-0.6
					l3.9,14.2L110.3,36.2z"/>
				<path d="M126.8,30.3l0.5,2.2l-10.8,2.2l-2.9-14.4l10.5-2.1l0.5,2.2l-7.8,1.6l0.8,3.7l7-1.4l0.4,2.2l-7,1.4l0.8,4L126.8,30.3z"/>
				<path d="M140.9,15.6l2,14.6l-2.2,0.3l-9.4-8.7l1.4,9.9L130,32l-2-14.6l2.2-0.3l9.4,8.7l-1.4-9.9L140.9,15.6z"/>
				<path d="M148.7,17.3l-4.9,0.4l-0.2-2.3l12.4-1l0.2,2.3l-4.9,0.4l1,12.3l-2.7,0.2L148.7,17.3z"/>
			</g>
		</g>
	</g>
</g>
</svg>
