<?xml version="1.0" encoding="utf-8"?>
<!-- Generator: Adobe Illustrator 26.3.1, SVG Export Plug-In . SVG Version: 6.00 Build 0)  -->
<svg version="1.1" id="Layer_2_00000037659967289470972190000013705192179187502997_"
	 xmlns="http://www.w3.org/2000/svg" xmlns:xlink="http://www.w3.org/1999/xlink" x="0px" y="0px" viewBox="0 0 155 76.4"
	 style="enable-background:new 0 0 155 76.4;" xml:space="preserve">
<g>
	<g>
		<g>
			<g>
				<path d="M12.5,72.7l0.3,2.3L1.8,76.4L0,61.8l10.6-1.3l0.3,2.3l-7.9,1l0.5,3.8l7-0.9l0.3,2.2l-7,0.9l0.5,4L12.5,72.7z"/>
				<path d="M25.4,72.9l-4.9-4.8l-2.9,6.2l-3.1,0.5l4.1-8.3l-6.3-6.2l3-0.5l4.6,4.5l2.8-5.8l2.9-0.5l-3.8,7.9l6.8,6.5L25.4,72.9z"/>
				<path d="M36.7,56c1,0.2,1.9,0.6,2.5,1.3s1.1,1.5,1.4,2.6c0.2,1,0.2,2-0.1,2.9s-0.9,1.6-1.7,2.3C38,65.6,37,66,35.7,66.3
					l-3.2,0.7l1,4.1l-2.7,0.6l-3.3-14.3l5.9-1.4C34.6,55.8,35.7,55.8,36.7,56z M37.5,62.7c0.5-0.6,0.6-1.4,0.4-2.3
					c-0.2-0.9-0.7-1.5-1.4-1.9s-1.7-0.4-2.8-0.1l-3.1,0.7l1.3,5.7l3.1-0.7C36.2,63.8,37.1,63.4,37.5,62.7z"/>
				<path d="M56.1,62.9l0.6,2.2l-10.6,3L42,54l10.3-3l0.6,2.2l-7.7,2.2l1.1,3.7l6.8-2l0.6,2.2l-6.8,2l1.1,3.9L56.1,62.9z"/>
				<path d="M62.6,62.3c-1.3-0.2-2.5-0.8-3.5-1.6c-1-0.9-1.8-2-2.2-3.3c-0.5-1.4-0.6-2.7-0.3-4c0.3-1.3,0.9-2.5,1.8-3.5
					c0.9-1,2.1-1.8,3.5-2.2c1.1-0.4,2.2-0.6,3.3-0.5c1.1,0.1,2.1,0.4,3,0.9l-1.1,2.1c-1.4-0.7-2.8-0.9-4.3-0.3
					c-1,0.3-1.7,0.8-2.3,1.5c-0.6,0.7-1,1.5-1.2,2.3s-0.1,1.8,0.2,2.7c0.3,0.9,0.8,1.7,1.5,2.3c0.7,0.6,1.5,1,2.4,1.1
					c0.9,0.2,1.8,0.1,2.8-0.3c1.5-0.5,2.5-1.5,3.1-2.9l2.2,1c-0.4,1-1,1.8-1.8,2.6c-0.8,0.7-1.8,1.3-2.9,1.7
					C65.3,62.4,63.9,62.5,62.6,62.3z"/>
				<path d="M73.2,46.1l-4.5,1.8l-0.9-2.1l11.6-4.7l0.9,2.1L75.7,45l4.6,11.5l-2.5,1L73.2,46.1z"/>
				<path d="M93.9,46.8l-6.7,3.1l0.1,3.7l-2.6,1.2l-0.2-16.1l2.4-1.1l12.2,10.6l-2.6,1.2L93.9,46.8z M92.2,45.2L87,40.6l0.2,7
					L92.2,45.2z"/>
				<path d="M97.7,34.8l-4.3,2.3l-1.1-2l11-5.8l1.1,2l-4.3,2.3l5.8,11l-2.4,1.3L97.7,34.8z"/>
				<path d="M105.1,28.2l2.4-1.4l7.3,12.8l-2.4,1.4L105.1,28.2z"/>
				<path d="M120.7,35.3c-1.4,0.1-2.6-0.2-3.8-0.8s-2.2-1.5-2.9-2.7c-0.8-1.2-1.2-2.5-1.2-3.8c0-1.3,0.3-2.6,1-3.8
					c0.7-1.2,1.6-2.2,2.9-3c1.3-0.8,2.6-1.2,3.9-1.3c1.4-0.1,2.6,0.2,3.8,0.8c1.2,0.6,2.2,1.5,2.9,2.7s1.2,2.5,1.2,3.8
					c0,1.3-0.3,2.6-1,3.8s-1.6,2.2-2.9,3C123.4,34.7,122.1,35.2,120.7,35.3z M125.3,29.9c0.4-0.8,0.6-1.6,0.6-2.5
					c0-0.9-0.3-1.8-0.9-2.6c-0.5-0.8-1.2-1.5-2-1.9c-0.8-0.4-1.7-0.6-2.5-0.6s-1.8,0.3-2.6,0.9c-0.8,0.5-1.5,1.2-1.9,2
					c-0.4,0.8-0.6,1.6-0.6,2.6c0,0.9,0.3,1.8,0.9,2.6c0.5,0.8,1.2,1.5,2,1.9c0.8,0.4,1.7,0.6,2.5,0.6s1.8-0.3,2.6-0.9
					C124.2,31.4,124.8,30.7,125.3,29.9z"/>
				<path d="M136.3,7.8l8.6,11.9l-1.8,1.3l-12.4-3.3l5.8,8.1l-2.2,1.6l-8.6-11.9l1.8-1.3l12.4,3.3l-5.8-8.1L136.3,7.8z"/>
				<path d="M149.4,15.8c-1,0.4-1.9,0.6-2.8,0.6l-0.6-2.2c0.8,0,1.6-0.2,2.5-0.5c0.9-0.3,1.6-0.8,2.3-1.3c0.8-0.7,1.4-1.3,1.6-2
					c0.2-0.6,0.1-1.1-0.2-1.6c-0.3-0.3-0.6-0.5-1-0.5c-0.4,0-0.8,0.1-1.3,0.2c-0.5,0.2-1.1,0.4-1.8,0.8c-1,0.5-1.9,0.9-2.6,1.1
					s-1.4,0.3-2.2,0.2s-1.4-0.6-2-1.3c-0.5-0.6-0.8-1.3-0.9-2.1c-0.1-0.8,0.1-1.6,0.5-2.5s1.2-1.7,2.2-2.5c0.7-0.6,1.4-1,2.3-1.4
					c0.8-0.4,1.6-0.6,2.4-0.7l0.7,2.2c-0.7,0.1-1.4,0.3-2.1,0.6c-0.7,0.3-1.3,0.6-1.8,1.1c-0.8,0.7-1.3,1.3-1.5,1.9
					c-0.2,0.6-0.1,1.2,0.3,1.6c0.3,0.3,0.6,0.5,1,0.5c0.4,0,0.8-0.1,1.3-0.2c0.5-0.2,1.1-0.4,1.8-0.8c1-0.5,1.9-0.9,2.6-1.1
					c0.7-0.2,1.4-0.3,2.2-0.2c0.7,0.1,1.4,0.6,2,1.3c0.5,0.6,0.8,1.3,0.9,2.1c0.1,0.8-0.1,1.6-0.6,2.5c-0.4,0.9-1.2,1.7-2.2,2.5
					C151.4,14.8,150.4,15.4,149.4,15.8z"/>
			</g>
		</g>
		<g>
			<g>
				<path d="M52,30l4.3,14l-2.6,0.8l-1.9-6l-7.3,2.2l1.9,6l-2.6,0.8l-4.3-14l2.6-0.8l1.8,5.8l7.3-2.2l-1.8-5.8L52,30z"/>
				<path d="M55.6,28.7l2.6-0.9l5,13.8l-2.6,0.9L55.6,28.7z"/>
				<path d="M73.9,29.3l2.4-1l2.2,5.4c-0.5,0.8-1.1,1.6-1.9,2.3c-0.8,0.7-1.7,1.2-2.7,1.6c-1.4,0.6-2.8,0.8-4.1,0.6
					c-1.4-0.1-2.6-0.6-3.6-1.4C65,36,64.2,35,63.7,33.6c-0.5-1.3-0.7-2.7-0.5-4c0.2-1.3,0.7-2.5,1.6-3.6c0.9-1.1,2-1.9,3.4-2.5
					c1.1-0.5,2.3-0.7,3.3-0.7c1.1,0,2.1,0.2,3,0.7l-1,2.2c-1.5-0.6-2.9-0.6-4.4,0c-1,0.4-1.7,0.9-2.3,1.7c-0.6,0.7-0.9,1.5-1.1,2.4
					c-0.1,0.9,0,1.8,0.4,2.7c0.4,0.9,0.9,1.6,1.6,2.2c0.7,0.6,1.5,0.9,2.5,1c0.9,0.1,1.8,0,2.8-0.4c1.1-0.4,1.9-1.1,2.5-1.9
					L73.9,29.3z"/>
				<path d="M88.4,14.5l6.5,13.2l-2.5,1.2l-2.8-5.7l-6.8,3.4l2.8,5.7l-2.5,1.2l-6.5-13.2l2.5-1.2l2.7,5.4l6.8-3.4L86,15.7L88.4,14.5
					z"/>
			</g>
		</g>
	</g>
</g>
</svg>
