<?xml version="1.0" encoding="utf-8"?>
<!-- Generator: Adobe Illustrator 26.3.1, SVG Export Plug-In . SVG Version: 6.00 Build 0)  -->
<svg version="1.1" id="Layer_2_00000037659967289470972190000013705192179187502997_"
	 xmlns="http://www.w3.org/2000/svg" xmlns:xlink="http://www.w3.org/1999/xlink" x="0px" y="0px" viewBox="0 0 132.1 127.9"
	 style="enable-background:new 0 0 132.1 127.9;" xml:space="preserve">
<g>
	<g>
		<path d="M16.8,109.5c1-0.3,2.1-0.1,3.2,0.3c1.6,0.7,2.5,1.8,2.8,3.4c0.3,1.6,0,3.5-1,5.8l-3.8,9l-18-7.7l3.6-8.4
			c0.9-2.1,2-3.6,3.4-4.4c1.3-0.8,2.7-0.9,4.2-0.2c0.9,0.4,1.6,0.9,2.1,1.6c0.5,0.7,0.8,1.5,0.9,2.4
			C14.9,110.3,15.8,109.7,16.8,109.5z M4.1,118l5,2.1l2-4.7c0.5-1.2,0.7-2.2,0.5-3c-0.2-0.8-0.6-1.4-1.4-1.7
			c-0.8-0.4-1.6-0.3-2.3,0.1s-1.3,1.3-1.8,2.4L4.1,118z M18.2,113c-1.7-0.7-3.2,0.2-4.3,2.8l-2.3,5.4l5.2,2.2l2.3-5.4
			C20.3,115.5,19.9,113.8,18.2,113z"/>
		<path d="M30.8,95l2.7,1.5l-7.1,12.9L9.2,99.8l6.9-12.5l2.7,1.5l-5.2,9.3l4.5,2.5l4.6-8.3l2.6,1.5l-4.6,8.3l4.7,2.6L30.8,95z"/>
		<path d="M18.9,82.8l2-3l13.7,9.3l5.8-8.5l2.5,1.7l-7.8,11.5L18.9,82.8z"/>
		<path d="M45.5,77.6c-1.7,0.7-3.4,0.9-5.2,0.6c-1.8-0.3-3.4-1-4.8-2.3c-1.5-1.2-2.5-2.7-3.1-4.4c-0.6-1.7-0.7-3.4-0.3-5.2
			c0.4-1.8,1.2-3.4,2.5-5c1.3-1.5,2.8-2.6,4.5-3.3s3.4-0.9,5.2-0.6c1.8,0.3,3.4,1,4.9,2.3c1.5,1.2,2.5,2.7,3.1,4.4
			c0.6,1.7,0.7,3.4,0.3,5.2c-0.4,1.8-1.2,3.4-2.5,5C48.7,75.8,47.2,76.9,45.5,77.6z M49.1,68.9c0.2-1.2,0.1-2.3-0.3-3.5
			c-0.4-1.1-1.1-2.1-2.1-3c-1-0.8-2.1-1.4-3.3-1.6c-1.2-0.2-2.3-0.1-3.5,0.3c-1.1,0.4-2.1,1.1-2.9,2.1c-0.8,1-1.4,2.1-1.6,3.3
			c-0.2,1.2-0.1,2.3,0.3,3.5c0.4,1.1,1.1,2.1,2.1,3c1,0.8,2.1,1.4,3.3,1.6s2.3,0.1,3.5-0.3c1.1-0.4,2.1-1.1,2.9-2.1
			C48.3,71.2,48.9,70.1,49.1,68.9z"/>
		<path d="M57.7,37.8l13.5,14.3L69,54.2l-17-2.2l9.1,9.7l-2.6,2.5L45,49.8l2.2-2.1l17,2.2L55,40.3L57.7,37.8z"/>
		<path d="M79,33.4l2.8-2.1l4.7,6.2c-0.3,1.2-0.9,2.4-1.7,3.6c-0.8,1.2-1.8,2.2-2.9,3c-1.6,1.2-3.3,1.9-5.1,2.2
			c-1.8,0.3-3.5,0.1-5.2-0.6c-1.7-0.7-3.1-1.8-4.2-3.3s-1.8-3.2-2-5c-0.2-1.8,0.1-3.5,0.9-5.2c0.8-1.7,2-3.1,3.6-4.3
			c1.3-1,2.7-1.7,4.1-2c1.4-0.4,2.8-0.4,4.1-0.1L77.5,29c-2.1-0.3-4,0.2-5.7,1.5c-1.1,0.8-1.9,1.8-2.4,2.9c-0.5,1.1-0.7,2.3-0.5,3.5
			c0.1,1.2,0.6,2.3,1.4,3.4c0.8,1,1.7,1.8,2.8,2.3c1.1,0.5,2.3,0.6,3.5,0.5c1.2-0.2,2.4-0.7,3.5-1.5c1.2-0.9,2.1-2,2.6-3.2L79,33.4z
			"/>
		<path d="M80.7,20.7l3.1-2l10.6,16.5l-3.1,2L80.7,20.7z"/>
		<path d="M104.2,7.2l9.2,17.3l-2.6,1.4L95,19.3l6.3,11.7l-3.2,1.7l-9.2-17.3l2.6-1.4l15.8,6.6L101,8.9L104.2,7.2z"/>
		<path d="M126,8.5l3.2-1.3l2.9,7.3c-0.6,1.1-1.5,2.1-2.6,3c-1.1,0.9-2.3,1.6-3.6,2.1c-1.9,0.7-3.7,1-5.5,0.8s-3.4-0.9-4.8-1.9
			c-1.4-1.1-2.5-2.5-3.2-4.3c-0.7-1.8-0.9-3.6-0.6-5.3c0.3-1.8,1-3.3,2.2-4.7c1.2-1.4,2.7-2.5,4.6-3.2c1.5-0.6,3-0.9,4.5-0.9
			c1.4,0,2.8,0.3,4,1l-1.3,2.9c-1.9-0.8-3.9-0.9-5.8-0.1c-1.3,0.5-2.3,1.2-3.1,2.2c-0.8,0.9-1.3,2-1.4,3.2c-0.2,1.2,0,2.4,0.5,3.7
			c0.5,1.2,1.2,2.2,2.2,2.9c1,0.7,2,1.2,3.3,1.4c1.2,0.2,2.5,0,3.7-0.5c1.4-0.6,2.5-1.4,3.4-2.4L126,8.5z"/>
	</g>
</g>
</svg>
