<?xml version="1.0" encoding="utf-8"?>
<!-- Generator: Adobe Illustrator 26.3.1, SVG Export Plug-In . SVG Version: 6.00 Build 0)  -->
<svg version="1.1" id="Layer_2_00000037659967289470972190000013705192179187502997_"
	 xmlns="http://www.w3.org/2000/svg" xmlns:xlink="http://www.w3.org/1999/xlink" x="0px" y="0px" viewBox="0 0 146.4 146.4"
	 style="enable-background:new 0 0 146.4 146.4;" xml:space="preserve">
<g>
	<g>
		<path d="M8.1,146.2c-1.8-0.3-3.3-1.1-4.7-2.3c-1.3-1.2-2.3-2.7-2.9-4.5c-0.6-1.8-0.7-3.6-0.3-5.3c0.4-1.7,1.2-3.3,2.5-4.6
			c1.2-1.3,2.8-2.3,4.7-2.9c1.5-0.5,3-0.7,4.4-0.6s2.8,0.5,4,1.3l-1.5,2.8c-1.8-1-3.7-1.2-5.7-0.6c-1.3,0.4-2.3,1.1-3.2,2
			c-0.8,0.9-1.4,1.9-1.6,3.1c-0.2,1.2-0.2,2.4,0.3,3.7c0.4,1.3,1.1,2.3,2,3.1c0.9,0.8,1.9,1.3,3.1,1.6c1.2,0.2,2.4,0.1,3.7-0.3
			c2-0.6,3.4-1.9,4.3-3.8l2.9,1.4c-0.5,1.3-1.4,2.4-2.5,3.4s-2.4,1.7-3.9,2.2C11.7,146.4,9.9,146.6,8.1,146.2z"/>
		<path d="M37.3,132.7l1.2,2.8l-13.5,5.9l-7.9-17.9l13.1-5.8l1.2,2.8l-9.8,4.3l2,4.7l8.7-3.8l1.2,2.7l-8.7,3.8l2.2,4.9L37.3,132.7z"
			/>
		<path d="M33.5,116.1l3.2-1.8l8,14.5l9-4.9l1.5,2.7l-12.2,6.7L33.5,116.1z"/>
		<path d="M68.8,113.8l1.7,2.5l-12.2,8.2l-10.9-16.3l11.9-8l1.7,2.5l-8.9,6l2.8,4.2l7.9-5.3l1.7,2.5l-7.9,5.3l3,4.5L68.8,113.8z"/>
		<path d="M81.8,96.3c1,0.2,1.9,0.8,2.7,1.8c1.1,1.3,1.4,2.7,1,4.3c-0.4,1.5-1.6,3.1-3.5,4.7l-7.5,6.2L62,98.2l7.1-5.9
			c1.8-1.5,3.4-2.3,5-2.4s2.8,0.5,3.8,1.7c0.6,0.7,1,1.6,1.1,2.4c0.1,0.9,0,1.7-0.3,2.5C79.8,96.2,80.8,96.1,81.8,96.3z M66.6,98.1
			l3.5,4.2l4-3.3c1-0.8,1.6-1.6,1.8-2.4c0.2-0.8,0.1-1.5-0.5-2.2c-0.6-0.7-1.3-1-2.1-0.9c-0.8,0.1-1.7,0.5-2.7,1.3L66.6,98.1z
			 M81.5,100.2c-1.2-1.5-2.9-1.3-5.1,0.5l-4.5,3.8l3.6,4.4L80,105C82.2,103.2,82.7,101.6,81.5,100.2z"/>
		<path d="M100.4,89.6l-6.9-1.1c-0.1,0.1-0.3,0.3-0.5,0.6l-3.1,3.2l4.1,4l-2.5,2.6l-14-13.7l5.6-5.8c1.2-1.2,2.4-2.1,3.7-2.6
			c1.3-0.5,2.5-0.6,3.7-0.4c1.2,0.2,2.3,0.9,3.4,1.9c1.1,1,1.7,2.2,2,3.4c0.3,1.3,0.1,2.6-0.5,3.9l7.8,1.3L100.4,89.6z M88.4,79.7
			c-1.1,0.1-2.1,0.7-3.2,1.9l-3,3l5.6,5.4l3-3c1.1-1.1,1.7-2.2,1.8-3.3c0.1-1.1-0.3-2-1.2-2.9S89.5,79.6,88.4,79.7z"/>
		<path d="M110.6,70.3l-6.1,7.7l2.4,4.3l-2.3,2.9l-9.9-19.1l2.2-2.8l20.9,5.2l-2.4,3L110.6,70.3z M107.6,69.5l-9-2.4l4.5,8.2
			L107.6,69.5z"/>
		<path d="M107.2,54.2l-3.5,5.4l-2.6-1.7l9.1-13.9l2.6,1.7l-3.5,5.4l13.9,9l-2,3.1L107.2,54.2z"/>
		<path d="M111.1,42.1l1.8-3.2l17.1,9.6l-1.8,3.2L111.1,42.1z"/>
		<path d="M122.4,19.2l17.8,8.2l-1.3,2.7l-16.6,4.3l12,5.6l-1.5,3.3L115.1,35l1.3-2.7L133,28l-12.1-5.6L122.4,19.2z"/>
		<path d="M137.3,5.6l1.1-3.3l7.4,2.5c0.4,1.2,0.7,2.5,0.6,3.9c0,1.4-0.3,2.8-0.7,4.1c-0.6,1.9-1.6,3.5-2.9,4.7
			c-1.3,1.2-2.9,2.1-4.6,2.4c-1.7,0.4-3.5,0.3-5.3-0.3s-3.3-1.6-4.5-2.9c-1.2-1.4-1.9-2.9-2.2-4.7c-0.3-1.8-0.1-3.7,0.5-5.6
			c0.5-1.6,1.2-2.9,2.2-4c0.9-1.1,2-1.9,3.3-2.5l1.4,2.9c-1.9,0.9-3.2,2.4-3.8,4.4c-0.4,1.3-0.6,2.6-0.3,3.8
			c0.2,1.2,0.7,2.3,1.5,3.2c0.8,0.9,1.8,1.6,3.1,2c1.2,0.4,2.5,0.5,3.6,0.3c1.2-0.2,2.2-0.8,3.1-1.6c0.9-0.8,1.6-1.9,2-3.2
			c0.5-1.5,0.6-2.8,0.3-4.1L137.3,5.6z"/>
	</g>
</g>
</svg>
