<?xml version="1.0" encoding="utf-8"?>
<!-- Generator: Adobe Illustrator 26.3.1, SVG Export Plug-In . SVG Version: 6.00 Build 0)  -->
<svg version="1.1" id="Layer_2_00000037659967289470972190000013705192179187502997_"
	 xmlns="http://www.w3.org/2000/svg" xmlns:xlink="http://www.w3.org/1999/xlink" x="0px" y="0px" viewBox="0 0 124.5 130.2"
	 style="enable-background:new 0 0 124.5 130.2;" xml:space="preserve">
<g>
	<path d="M60,91.9c0-0.9-0.3-1.6-0.8-2c-0.5-0.4-1.1-0.6-1.9-0.6c-0.1,0-0.3,0-0.4,0c-0.1,0-0.2,0-0.3,0c-0.3,0-0.5-0.1-0.6-0.3
		c-0.1-0.4-0.4-0.6-0.9-0.8c-0.2-0.1-0.3-0.1-0.5-0.2c-0.5-0.2-1-0.4-1.4-0.5c-0.4-0.1-0.6-0.4-0.6-0.9c0-1.4,0-2.8,0-4.2l0-0.3
		c0-0.6-0.1-0.9-0.3-1.2c-0.2-0.2-0.6-0.3-1.2-0.3c-7.5,0.1-14.2,2.3-20,6.7c0,0-0.1,0.1-0.1,0.1c-0.1,0.1-0.2,0.2-0.2,0.1
		c-0.1-0.1-0.1-0.2-0.1-0.4c0,0,0-0.1,0-0.1c-0.5-3.6-1.5-6.7-3.3-9.4c-2.5-3.8-6-6.3-10.6-7.3c-0.5-0.1-0.9-0.1-1.1,0.1
		c-0.3,0.2-0.4,0.6-0.4,1.1c0,0.6,0,1.3,0,1.9c0,0.3,0,0.6,0,0.9c0,0.3,0,0.6-0.1,0.6c-0.1,0-0.3,0-0.6-0.1c-1.1-0.4-2.3-0.8-3.5-1
		c-0.6-0.1-1-0.1-1.3,0.1C9.7,74,9.6,74.4,9.6,75c0,2.5,0,5.1,0,7.5l0,3.1c0,0.9,0,0.9-0.9,1.2l0,0c-1.3,0.3-2.6,0.8-3.8,1.3
		c-0.4,0.2-0.8,0.4-1,0.8c-0.1,0.3-0.3,0.4-0.6,0.4c-0.1,0-0.2,0-0.3,0c-0.1,0-0.2,0-0.3,0c-1.2-0.1-2.1,0.4-2.6,1.5l0,0v28l0,0
		c0.3,0.3,0.7,0.7,1.3,0.4c0.6-0.2,0.6-0.8,0.6-1.2c0-9.6,0-18,0-25.7c0-0.1,0-0.1,0-0.2c0-0.3,0-0.5,0.2-0.6c0.4-0.1,1-0.1,1.4,0
		c0.1,0,0.1,0.1,0.1,0.3c0,0.2,0,0.5,0,0.7l0,32.1l0,0.2c0,0.2,0,0.3,0,0.5c0,1,0.4,1.4,1.4,1.4c5.3,0,10.6,0,15.9,0l33.6,0
		c1.4,0,1.7-0.3,1.7-1.6c0-8,0-16,0-24v-8.6c0-0.6,0.1-0.9,0.3-1.1c0.2-0.2,0.6-0.2,1.2,0c0.2,0,0.3,0.1,0.3,0.3c0,0.2,0,0.3,0,0.5
		v0.1c0,11.7,0,23.4,0,35c0,0.9,0,0.9-0.9,0.9h-5.2c-6.2,0-12.3,0-18.5,0c-0.5,0-0.8-0.1-1.2-0.4c-1.4-1-3.2-1-4.6,0
		c-0.3,0.2-0.7,0.4-1.1,0.4c0,0,0,0,0,0c-6,0-12,0-17.9,0l-5.9,0c-0.8,0-0.8,0-0.8-0.8l0-0.3c0-1,0-2.1,0-3.2c0-0.5,0-1-0.6-1.2
		c-0.5-0.2-0.9-0.1-1.3,0.4l0,0v0c0,0.6,0,1.1,0,1.7c0,1.6,0,3.2,0,4.9c0,0.2,0,0.3,0.1,0.4c0.1,0.1,0.2,0.1,0.4,0.1c0,0,0,0,0,0
		c7.7,0,15.6,0,23.2,0l4.4,0l0,0c0.1,0,0.1-0.1,0.2-0.1c0.1-0.1,0.2-0.2,0.3-0.3c0.8-0.8,1.8-0.8,2.7,0c0.1,0.1,0.2,0.2,0.3,0.3
		c0.1,0,0.1,0.1,0.2,0.1l0,0h26.7l0,0c1-0.5,1.5-1.3,1.5-2.5C60,117,60,104.4,60,91.9z M31,111.5c0-6.8,0-13.7,0-20.6
		c0-0.5,0.2-0.8,0.5-1.1c4.2-3.5,9.1-5.7,14.8-6.7c1.3-0.2,2.5-0.3,3.7-0.4c0,0,0,0,0.1,0c0.2,0,0.4,0,0.4,0.1
		c0.1,0.1,0.1,0.2,0.1,0.5c0,1.9,0,3.8,0,5.7c0,0.6,0,1.3,0,1.9l0,0.1c0,0.2,0,0.3,0,0.5c0.1,0.6,0.5,1,1,1c0.5,0,1-0.4,1-1
		c0.1-0.6,0-1.1,0-1.6c0-0.2,0-0.3,0.1-0.4c0.1,0,0.2,0,0.4,0l0,0c0.9,0.3,0.9,0.3,0.9,1.3l0,29.9c0,0.4,0,0.6-0.1,0.7
		c-0.1,0.1-0.3,0-0.7-0.1c-3.7-1.1-7.5-1.5-11.3-1.3c-0.6,0-1.1,0.1-1.7,0.2c-0.1,0-0.1,0-0.2,0c2-0.8,4.2-1.4,6.6-1.8
		c1.6-0.2,3.1-0.4,4.6-0.4c0,0,0,0,0,0c1,0,1.4-0.4,1.4-1.5c0-2.8,0-5.6,0-8.5l0-3l0-2.1c0-1.9,0-3.8,0-5.7c0-0.6-0.1-1.1-0.4-1.3
		c-0.2-0.2-0.4-0.3-0.7-0.2c-0.7,0-1,0.5-1,1.6l0,8.3c0,3.2,0,6.4,0,9.7c0,0.7,0,0.8-0.8,0.8c-6.8,0.3-13,2.5-18.4,6.5
		c0,0-0.1,0.1-0.1,0.1c-0.1,0.1-0.2,0.2-0.3,0.1c-0.1,0-0.1-0.1-0.1-0.3c0-0.1,0-0.1,0-0.2C31,118.7,31,115.1,31,111.5z M38.2,122.7
		c4.9-1.2,10-0.9,15.6,0.8c0.4,0.1,0.5,0.3,0.5,0.7c0,0.3-0.2,0.4-0.5,0.4c-6.8,0-13.5,0-20.3,0c0,0,0,0-0.1,0
		C34.7,123.7,36.2,123.1,38.2,122.7z M9.6,109.5c0,1.2,0.2,1.4,1.4,1.7c6.4,1.5,11.7,5.1,15.9,10.8c0,0,0,0,0,0.1
		c0.1,0.1,0.1,0.1,0.1,0.2c-0.1,0-0.2,0-0.3-0.1c0,0-0.1,0-0.1-0.1c-3.4-1.4-6.9-2.2-10.7-2.2c-1,0-1.9,0-2.9,0.1
		c-2.1,0.2-4.2,0.6-6.5,1.2c-0.3,0.1-0.5,0.1-0.5,0.1c-0.1,0-0.1-0.2-0.1-0.5l0-7.4c0-7.5,0-15.3,0-23c0-0.5,0.2-0.7,0.6-0.9
		c0.4-0.1,0.9-0.3,1.3-0.4C8.1,89.1,8.5,89,9,88.8c0.3-0.1,0.5-0.1,0.5-0.1c0.1,0.1,0.1,0.3,0.1,0.6c0,2.7,0,5.4,0,8.1l0,5.3
		C9.6,105,9.6,107.2,9.6,109.5z M5.8,123.9c0-0.3,0.2-0.3,0.5-0.4l0.1,0c1.9-0.6,3.8-1,5.6-1.3c1.3-0.2,2.5-0.2,3.8-0.2
		c3.2,0,6.2,0.5,9,1.6c0.5,0.2,1,0.4,1.4,0.6c0.2,0.1,0.4,0.2,0.6,0.3c0,0,0.1,0,0.1,0.1c0,0,0,0,0,0c0,0-0.1,0-0.1,0
		c-0.1,0-0.3,0-0.4,0c-6.6,0-13.2,0-19.9,0c-0.4,0-0.6,0-0.7-0.2C5.8,124.3,5.8,124.2,5.8,123.9z M11.6,108.6c0-8.3,0-16.8,0-24.9
		l0-7.1c0-0.3,0-0.5,0.1-0.6c0,0,0.1,0,0.1,0c0.1,0,0.3,0,0.5,0.1c0.4,0.1,0.8,0.3,1.2,0.4c0.4,0.1,0.8,0.3,1.3,0.4
		c0.5,0.1,0.6,0.4,0.6,0.9c0,1.4,0,2.9,0,4.3c0,0.5,0,1.1,0,1.6v5.6c0,5.6,0,11.2,0,16.7c0,1.1,0.2,1.4,1.3,1.7
		c5.2,1.2,8.9,4.6,10.9,9.9c0.4,1.1,0.7,2,0.8,2.9c-0.1-0.2-0.3-0.3-0.4-0.5c-0.4-0.5-0.8-1.1-1.3-1.6c-4-4.5-8.8-7.6-14.3-9.1
		C11.8,109.3,11.6,109.1,11.6,108.6z M17.5,105.1c0-8.5,0-17.1,0-25.4l0-6.4c0-0.4,0-0.6,0.1-0.7c0,0,0,0,0.1,0
		c0.1,0,0.3,0.1,0.6,0.2c4.3,1.4,7.3,4.5,9.1,9c1,2.6,1.5,5.2,1.6,7.7c0,6.2,0,12.6,0,18.7c0,2.4,0,4.8,0,7.2v0
		c-1-2-2.1-3.5-3.2-4.7c-2-2.2-4.6-3.7-7.5-4.6C17.7,105.9,17.5,105.7,17.5,105.1z"/>
	<g>
		<g>
			<path d="M18.7,0L22,1.5l-7,15l9.3,4.3l-1.3,2.8l-12.6-5.9L18.7,0z"/>
			<path d="M39.1,29.3L37.6,32l-12.7-7.4l9.8-17L47,14.8l-1.5,2.6l-9.2-5.3l-2.6,4.4l8.2,4.7l-1.5,2.6l-8.2-4.7l-2.7,4.7L39.1,29.3z
				"/>
			<path d="M53.1,37.4l-7.9-5.7l-4.2,2.5l-3-2.2l18.6-10.7l2.9,2.1l-4.3,21.1l-3.1-2.2L53.1,37.4z M53.8,34.4l2-9.1l-8,4.8
				L53.8,34.4z"/>
			<path d="M65.7,54.1l0.8-6.9c-0.1-0.1-0.3-0.3-0.6-0.5l-3.3-2.9L58.9,48l-2.7-2.4l13.1-14.6l6,5.4c1.3,1.1,2.2,2.3,2.7,3.6
				c0.6,1.3,0.7,2.5,0.6,3.7c-0.2,1.2-0.8,2.4-1.7,3.4c-1,1.1-2.1,1.8-3.3,2.1c-1.2,0.3-2.5,0.2-3.9-0.3l-0.9,7.8L65.7,54.1z
				 M75.1,41.6c-0.2-1-0.8-2.1-2-3.2l-3.2-2.8l-5.2,5.8l3.2,2.8c1.2,1.1,2.3,1.6,3.4,1.6c1.1,0,2-0.4,2.9-1.3
				C74.9,43.7,75.3,42.7,75.1,41.6z"/>
			<path d="M96.8,58.5L82.2,71.6l-2-2.2l2.7-16.9l-9.9,8.9l-2.4-2.7l14.6-13.1l2,2.2l-2.7,16.9l9.9-8.9L96.8,58.5z"/>
			<path d="M100.4,63.3l2.2,2.9L87,78.1l-2.2-2.9L100.4,63.3z"/>
			<path d="M115.7,85.7L99.2,96.3l-1.6-2.5l5.3-16.3l-11.2,7.2l-2-3L106.3,71l1.6,2.5l-5.3,16.3l11.2-7.2L115.7,85.7z"/>
			<path d="M116.2,107.5l1.5,3.1l-7,3.5c-1.2-0.5-2.2-1.3-3.2-2.3c-1-1-1.8-2.2-2.4-3.4c-0.9-1.8-1.3-3.6-1.2-5.4
				c0.1-1.8,0.6-3.5,1.5-5c1-1.5,2.3-2.7,4-3.5c1.7-0.9,3.5-1.2,5.2-1.1c1.8,0.1,3.4,0.7,4.9,1.8c1.5,1.1,2.7,2.5,3.6,4.3
				c0.7,1.5,1.2,2.9,1.3,4.4c0.1,1.4-0.1,2.8-0.6,4.1l-3-1.1c0.7-2,0.5-3.9-0.4-5.8c-0.6-1.2-1.4-2.2-2.4-2.9
				c-1-0.7-2.1-1.1-3.3-1.2c-1.2-0.1-2.4,0.2-3.6,0.8c-1.2,0.6-2.1,1.4-2.8,2.4c-0.7,1-1,2.1-1.1,3.4c-0.1,1.2,0.2,2.4,0.8,3.7
				c0.7,1.4,1.6,2.4,2.7,3.2L116.2,107.5z"/>
		</g>
	</g>
</g>
</svg>
