<?xml version="1.0" encoding="utf-8"?>
<!-- Generator: Adobe Illustrator 26.3.1, SVG Export Plug-In . SVG Version: 6.00 Build 0)  -->
<svg version="1.1" id="Layer_2_00000037659967289470972190000013705192179187502997_"
	 xmlns="http://www.w3.org/2000/svg" xmlns:xlink="http://www.w3.org/1999/xlink" x="0px" y="0px" viewBox="0 0 109.7 72.4"
	 style="enable-background:new 0 0 109.7 72.4;" xml:space="preserve">
<g>
	<g>
		<g>
			<g>
				<path d="M27.4,14.8L26.9,17l-10.7-2.7L19.8,0l10.4,2.7l-0.6,2.2l-7.8-2l-0.9,3.7l6.9,1.8l-0.6,2.2l-6.9-1.8l-1,3.9L27.4,14.8z"
					/>
				<path d="M38.3,20.5L36.1,14l-5.4,4.2l-3-0.9l7.4-5.5l-2.8-8.4l2.9,0.9l2,6.1l5.1-3.9l2.8,0.9l-7,5.2l3,8.9L38.3,20.5z"/>
				<path d="M56.4,12c0.7,0.7,1.2,1.5,1.4,2.4c0.2,0.9,0.1,1.9-0.3,2.9c-0.4,1-0.9,1.8-1.7,2.3c-0.7,0.6-1.6,0.9-2.7,0.9
					c-1,0.1-2.1-0.1-3.3-0.6l-3.1-1.2l-1.5,4l-2.6-0.9l5.1-13.8l5.7,2.1C54.7,10.7,55.6,11.3,56.4,12z M53.3,18.1
					c0.8-0.3,1.3-0.8,1.6-1.7s0.3-1.7-0.1-2.3c-0.4-0.7-1.2-1.2-2.3-1.6l-3-1.1l-2,5.5l3,1.1C51.6,18.2,52.6,18.3,53.3,18.1z"/>
				<path d="M62.4,13.7l2.5,1.1L60,26.1l7.1,3l-0.9,2.1l-9.6-4.1L62.4,13.7z"/>
				<path d="M74.2,18.9l2.5,1.2l-6.3,13.3L68,32.2L74.2,18.9z"/>
				<path d="M76.7,35.6c-0.8-1.1-1.2-2.4-1.2-3.7c-0.1-1.3,0.2-2.6,0.9-3.9c0.7-1.3,1.6-2.3,2.7-3c1.1-0.7,2.4-1.1,3.8-1.1
					c1.4,0,2.7,0.3,4,1c1.1,0.6,1.9,1.3,2.6,2.1c0.7,0.8,1.2,1.8,1.4,2.8l-2.3,0.7c-0.4-1.5-1.3-2.6-2.7-3.3
					c-0.9-0.5-1.8-0.7-2.7-0.7c-0.9,0-1.7,0.3-2.5,0.8c-0.8,0.5-1.4,1.2-1.8,2.1c-0.5,0.9-0.7,1.8-0.6,2.7c0,0.9,0.3,1.7,0.8,2.5
					c0.5,0.8,1.2,1.4,2.1,1.8c1.4,0.7,2.8,0.8,4.3,0.3l0.8,2.3c-1,0.4-2,0.5-3.1,0.5c-1.1-0.1-2.2-0.4-3.2-1
					C78.5,37.6,77.5,36.7,76.7,35.6z"/>
				<path d="M94.6,29.4l2.4,1.4l-7.3,12.8l-2.4-1.4L94.6,29.4z"/>
				<path d="M102,36.5l-4.1-2.6l1.2-2l10.6,6.6l-1.2,2l-4.1-2.6l-6.5,10.5L95.5,47L102,36.5z"/>
			</g>
		</g>
		<g>
			<g>
				<path d="M4.8,19.8l-4.8-1l0.5-2.3L12.7,19l-0.5,2.3l-4.8-1L5,32.5L2.3,32L4.8,19.8z"/>
				<path d="M22.9,34.4l-0.6,2.2l-10.7-2.7l3.7-14.2l10.4,2.7l-0.6,2.2l-7.7-2l-1,3.7l6.9,1.8l-0.6,2.2l-6.9-1.8l-1,3.9L22.9,34.4z"
					/>
				<path d="M35.1,37.1l-7-2.2l-2.4,2.8L23,36.8l10.8-12l2.6,0.8l1.8,16l-2.7-0.9L35.1,37.1z M34.9,34.8l-0.7-7l-4.6,5.3L34.9,34.8z
					"/>
				<path d="M42.4,42.5c-0.9-1-1.4-2.2-1.6-3.5c-0.2-1.3-0.1-2.6,0.5-4c0.5-1.3,1.3-2.4,2.4-3.2c1.1-0.8,2.3-1.3,3.6-1.5
					c1.4-0.2,2.7,0,4.1,0.5c1.1,0.4,2.1,1,2.8,1.8c0.8,0.8,1.3,1.6,1.7,2.6l-2.2,0.9c-0.6-1.5-1.6-2.5-3-3c-0.9-0.4-1.9-0.5-2.8-0.4
					c-0.9,0.1-1.7,0.5-2.4,1c-0.7,0.6-1.2,1.3-1.6,2.2c-0.4,0.9-0.5,1.8-0.3,2.7c0.1,0.9,0.5,1.7,1.1,2.4c0.6,0.7,1.3,1.2,2.3,1.6
					c1.4,0.6,2.9,0.5,4.3-0.2l1,2.2c-0.9,0.5-1.9,0.8-3,0.8c-1.1,0-2.2-0.2-3.3-0.6C44.4,44.3,43.3,43.6,42.4,42.5z"/>
				<path d="M71.6,39.9l-6.2,13.3l-2.5-1.2l2.7-5.7l-6.9-3.2L56,48.9l-2.5-1.1l6.2-13.3l2.5,1.2l-2.6,5.5l6.9,3.2l2.6-5.5L71.6,39.9
					z"/>
				<path d="M75.5,42l2.4,1.3l-6.8,13L68.7,55L75.5,42z"/>
				<path d="M93.2,52l-7.4,12.7l-1.9-1.1l-2-12.7l-5,8.6l-2.3-1.4l7.4-12.7l1.9,1.1l2,12.7l5-8.6L93.2,52z"/>
				<path d="M101.4,66l2.1,1.4l-3.3,4.9c-1,0.1-2,0-3-0.3s-2-0.7-2.8-1.3c-1.2-0.8-2.2-1.9-2.8-3.1c-0.6-1.2-0.9-2.5-0.8-3.8
					c0.1-1.3,0.5-2.6,1.3-3.8c0.8-1.2,1.8-2.1,3-2.6c1.2-0.6,2.5-0.8,3.9-0.6c1.4,0.1,2.7,0.6,3.9,1.5c1,0.7,1.8,1.5,2.4,2.4
					c0.6,0.9,1,1.9,1.1,2.9l-2.4,0.4c-0.3-1.6-1.1-2.8-2.4-3.7c-0.9-0.6-1.7-0.9-2.7-1s-1.8,0.1-2.6,0.5c-0.8,0.4-1.5,1-2.1,1.8
					c-0.5,0.8-0.9,1.7-0.9,2.6c-0.1,0.9,0.1,1.8,0.5,2.6c0.4,0.8,1,1.5,1.9,2.1c1,0.6,1.9,1,2.9,1.1L101.4,66z"/>
			</g>
		</g>
	</g>
</g>
</svg>
