<?xml version="1.0" encoding="utf-8"?>
<!-- Generator: Adobe Illustrator 26.3.1, SVG Export Plug-In . SVG Version: 6.00 Build 0)  -->
<svg version="1.1" id="Layer_2_00000037659967289470972190000013705192179187502997_"
	 xmlns="http://www.w3.org/2000/svg" xmlns:xlink="http://www.w3.org/1999/xlink" x="0px" y="0px" viewBox="0 0 81.8 134.7"
	 style="enable-background:new 0 0 81.8 134.7;" xml:space="preserve">
<g>
	<g>
		<g>
			<g>
				<path d="M39.6,29.7c-0.7-0.1-1.4-0.4-2-0.8s-1.1-1-1.5-1.6c-0.5-0.9-0.8-1.8-0.8-2.7c0-1,0.2-2.2,0.6-3.7
					c-0.6-1.2-0.9-2.5-0.8-3.8c0-1.3,0.4-2.4,1-3.5s1.5-2,2.7-2.6c1.2-0.7,2.5-1.1,3.9-1.1c1.3,0,2.6,0.4,3.8,1.1s2.1,1.7,2.9,3
					c0.8,1.3,1.2,2.6,1.2,4c0,1.4-0.3,2.6-0.9,3.8c-0.6,1.2-1.6,2.1-2.8,2.9c-1,0.6-2,0.9-3.1,1c-1.1,0.1-2.1,0-3.2-0.4
					c-1-0.4-1.9-0.9-2.8-1.7c-0.2,0.6-0.2,1.1-0.2,1.5c0,0.4,0.2,0.8,0.4,1.2c0.5,0.8,1.3,1.4,2.3,1.6L39.6,29.7z M38.3,15.2
					c-0.5,0.8-0.7,1.6-0.7,2.5c0,0.9,0.3,1.8,0.8,2.6c0.5,0.8,1.1,1.5,1.9,1.9c0.8,0.5,1.6,0.7,2.5,0.7c0.9,0,1.8-0.3,2.6-0.8
					s1.5-1.1,2-1.9c0.5-0.8,0.7-1.6,0.7-2.5c0-0.9-0.3-1.8-0.8-2.6c-0.5-0.8-1.1-1.5-1.9-1.9c-0.8-0.5-1.6-0.7-2.5-0.7
					c-0.9,0-1.8,0.3-2.6,0.8C39.4,13.8,38.7,14.4,38.3,15.2z"/>
				<path d="M43.8,31.4c0.5-1.5,1.7-2.8,3.6-3.7l7.4-3.7l1.2,2.4l-7.3,3.7c-2.6,1.3-3.3,3.1-2.2,5.3c1.1,2.2,3,2.7,5.5,1.4l7.3-3.7
					l1.2,2.4l-7.4,3.7c-1.9,1-3.6,1.2-5.1,0.7c-1.5-0.5-2.7-1.6-3.7-3.5C43.5,34.6,43.3,33,43.8,31.4z"/>
				<path d="M55.8,52.5l-2.9-6.7l-3.7,0L48,43.2l16.1,0.2l1.1,2.5L54.4,57.8l-1.1-2.6L55.8,52.5z M57.4,50.8l4.8-5.1l-7,0L57.4,50.8
					z"/>
				<path d="M68.7,54.2l1,2.6L58,61.1l2.7,7.2l-2.2,0.8l-3.6-9.8L68.7,54.2z"/>
				<path d="M73.1,66.4L74,69L60,73.7l-0.9-2.6L73.1,66.4z"/>
				<path d="M74,76.7L72.6,72l2.2-0.7l3.5,12L76.1,84l-1.4-4.7l-11.9,3.5l-0.8-2.6L74,76.7z"/>
				<path d="M71.2,94l-5,1.2l-0.6-2.7l5-1.2l7.9-7.9l0.7,2.8l-5.9,5.9l8,2.5l0.6,2.6L71.2,94z"/>
			</g>
		</g>
		<g>
			<g>
				<path d="M9.6,10.7L5.3,4.8L1.7,5.6L0,3.4L15.8,0l1.6,2.2L9.4,16.2l-1.7-2.3L9.6,10.7z M10.8,8.7l3.5-6L7.5,4.3L10.8,8.7z"/>
				<path d="M11.2,18.6c-0.3-1.1-0.4-2-0.3-2.8l2.3-0.4c-0.1,0.8,0,1.6,0.2,2.5c0.2,0.9,0.6,1.7,1.1,2.5c0.6,0.9,1.2,1.5,1.8,1.8
					c0.6,0.3,1.1,0.2,1.6-0.1c0.4-0.2,0.6-0.5,0.6-0.9s0-0.8-0.1-1.3s-0.3-1.1-0.6-1.9c-0.4-1.1-0.7-2-0.8-2.7
					c-0.2-0.7-0.1-1.5,0.1-2.2s0.7-1.4,1.5-1.9c0.7-0.4,1.4-0.7,2.2-0.7s1.6,0.3,2.4,0.8c0.8,0.5,1.6,1.3,2.3,2.4
					c0.5,0.8,0.9,1.6,1.2,2.4c0.3,0.8,0.4,1.7,0.4,2.4l-2.2,0.4c0-0.7-0.2-1.5-0.4-2.2c-0.2-0.7-0.5-1.3-0.9-1.9
					c-0.6-0.9-1.2-1.5-1.8-1.7c-0.6-0.2-1.1-0.2-1.6,0.1c-0.4,0.2-0.6,0.5-0.6,0.9c-0.1,0.4,0,0.8,0.1,1.3c0.1,0.5,0.3,1.1,0.6,1.9
					c0.4,1.1,0.7,1.9,0.8,2.7s0.1,1.5-0.1,2.2c-0.2,0.7-0.7,1.3-1.5,1.9c-0.7,0.4-1.4,0.7-2.2,0.6c-0.8,0-1.6-0.3-2.4-0.8
					s-1.6-1.3-2.3-2.4C12,20.6,11.5,19.6,11.2,18.6z"/>
				<path d="M18.2,29.6c-0.3-1.1-0.3-2-0.1-2.8l2.3-0.2c-0.1,0.8-0.1,1.6,0.1,2.5c0.2,0.9,0.5,1.7,0.9,2.5c0.5,0.9,1.1,1.6,1.7,1.9
					c0.6,0.3,1.1,0.3,1.6,0c0.4-0.2,0.6-0.5,0.7-0.9c0.1-0.4,0.1-0.8,0-1.3c-0.1-0.5-0.3-1.1-0.5-1.9c-0.3-1.1-0.6-2-0.7-2.8
					c-0.1-0.7-0.1-1.5,0.2-2.2c0.2-0.7,0.8-1.3,1.6-1.8c0.7-0.4,1.5-0.6,2.2-0.5c0.8,0,1.6,0.4,2.4,0.9c0.8,0.6,1.5,1.4,2.1,2.5
					c0.4,0.8,0.8,1.6,1,2.5c0.2,0.9,0.3,1.7,0.3,2.4l-2.3,0.3c0-0.7-0.1-1.5-0.3-2.2c-0.2-0.7-0.4-1.3-0.8-1.9
					c-0.5-0.9-1.1-1.5-1.7-1.8c-0.6-0.3-1.1-0.3-1.6,0c-0.4,0.2-0.6,0.5-0.7,0.9s-0.1,0.8,0,1.3c0.1,0.5,0.3,1.1,0.5,1.9
					c0.3,1.1,0.6,2,0.7,2.7c0.1,0.7,0.1,1.5-0.2,2.2c-0.2,0.7-0.8,1.3-1.6,1.8c-0.7,0.4-1.4,0.6-2.2,0.5c-0.8-0.1-1.6-0.4-2.4-0.9
					c-0.8-0.6-1.5-1.4-2.1-2.5C18.9,31.7,18.5,30.6,18.2,29.6z"/>
				<path d="M30.8,48.7l-2,1l-5-9.8l13.1-6.7l4.9,9.6l-2,1l-3.6-7.1l-3.4,1.7l3.2,6.3l-2,1l-3.2-6.3L27,41.3L30.8,48.7z"/>
				<path d="M30.7,53.4c-0.1-1.1-0.1-2,0.2-2.8l2.3,0C33,51.3,33,52.1,33,53.1s0.3,1.8,0.7,2.6c0.4,1,0.9,1.7,1.5,2
					c0.5,0.4,1.1,0.4,1.6,0.2c0.4-0.2,0.6-0.4,0.8-0.8c0.1-0.4,0.2-0.8,0.1-1.3c0-0.5-0.1-1.1-0.3-1.9C37.1,52.6,37,51.7,37,51
					c0-0.7,0.1-1.5,0.4-2.1c0.3-0.7,0.9-1.2,1.8-1.6c0.7-0.3,1.5-0.4,2.3-0.3c0.8,0.1,1.5,0.5,2.3,1.2c0.7,0.7,1.3,1.6,1.9,2.7
					c0.4,0.8,0.6,1.7,0.8,2.6c0.1,0.9,0.2,1.7,0,2.4l-2.3,0.1c0.1-0.7,0.1-1.5,0-2.2s-0.3-1.4-0.6-2c-0.4-1-0.9-1.6-1.5-2
					c-0.5-0.3-1.1-0.4-1.6-0.1c-0.4,0.2-0.6,0.4-0.8,0.8c-0.1,0.4-0.2,0.8-0.1,1.3c0,0.5,0.1,1.1,0.3,1.9c0.2,1.1,0.3,2,0.4,2.8
					c0,0.7-0.1,1.5-0.4,2.1s-0.9,1.2-1.8,1.6c-0.7,0.3-1.5,0.4-2.3,0.3c-0.8-0.1-1.5-0.5-2.3-1.2c-0.7-0.7-1.3-1.6-1.9-2.8
					C31.2,55.5,30.9,54.5,30.7,53.4z"/>
				<path d="M35.8,65.3c-0.1-1.1,0-2,0.3-2.8l2.3,0.1c-0.2,0.7-0.3,1.6-0.3,2.5s0.2,1.8,0.5,2.6c0.4,1,0.8,1.7,1.4,2.1
					c0.5,0.4,1,0.5,1.6,0.3c0.4-0.1,0.7-0.4,0.8-0.8c0.1-0.4,0.2-0.8,0.2-1.3s-0.1-1.1-0.2-2c-0.2-1.1-0.2-2.1-0.2-2.8
					c0-0.7,0.2-1.4,0.5-2.1c0.4-0.7,1-1.2,1.9-1.5c0.8-0.3,1.5-0.3,2.3-0.2c0.8,0.2,1.5,0.6,2.2,1.3c0.7,0.7,1.3,1.6,1.7,2.8
					c0.3,0.8,0.5,1.7,0.6,2.6c0.1,0.9,0.1,1.7-0.1,2.4l-2.3,0c0.1-0.7,0.2-1.5,0.1-2.2c-0.1-0.7-0.2-1.4-0.5-2
					c-0.4-1-0.8-1.7-1.4-2.1c-0.5-0.4-1.1-0.4-1.6-0.2c-0.4,0.1-0.7,0.4-0.8,0.8c-0.1,0.4-0.2,0.8-0.2,1.3s0.1,1.1,0.2,2
					c0.2,1.1,0.2,2,0.2,2.8c0,0.8-0.2,1.5-0.5,2.1c-0.3,0.7-1,1.2-1.9,1.5c-0.8,0.3-1.5,0.3-2.3,0.2c-0.8-0.2-1.5-0.6-2.2-1.3
					c-0.7-0.7-1.3-1.6-1.7-2.9C36.2,67.5,35.9,66.4,35.8,65.3z"/>
				<path d="M43.7,89.3l9.3-2.9l-9.1-2.2L43.5,83l6.2-6.9l-9.2,2.8l-0.8-2.5l14.1-4.3l0.7,2.1l-7.6,8.4l11,2.6l0.7,2.1l-14,4.3
					L43.7,89.3z"/>
				<path d="M50.1,105.6l-2.2,0.5l-2.5-10.7l14.3-3.4l2.4,10.5l-2.2,0.5l-1.8-7.8l-3.7,0.9L56,103l-2.2,0.5l-1.6-6.9l-3.9,0.9
					L50.1,105.6z"/>
				<path d="M65.1,119.3l-14.5,2.5l-0.4-2.2l8.5-9.7l-9.8,1.7l-0.5-2.7l14.5-2.5l0.4,2.2l-8.5,9.7l9.8-1.7L65.1,119.3z"/>
				<path d="M63.7,127.1l-0.5-4.8l2.3-0.3l1.4,12.4l-2.3,0.3l-0.5-4.8l-12.3,1.4l-0.3-2.7L63.7,127.1z"/>
			</g>
		</g>
	</g>
</g>
</svg>
