<?xml version="1.0" encoding="utf-8"?>
<!-- Generator: Adobe Illustrator 26.3.1, SVG Export Plug-In . SVG Version: 6.00 Build 0)  -->
<svg version="1.1" id="Layer_2_00000037659967289470972190000013705192179187502997_"
	 xmlns="http://www.w3.org/2000/svg" xmlns:xlink="http://www.w3.org/1999/xlink" x="0px" y="0px" viewBox="0 0 123.1 63.5"
	 style="enable-background:new 0 0 123.1 63.5;" xml:space="preserve">
<g>
	<g>
		<path d="M0.1,11.8c-0.3-1.6,0.2-3.2,1.4-5L6.3,0l2.2,1.6L3.8,8.3c-1.7,2.4-1.5,4.3,0.6,5.7c2,1.4,3.9,1,5.5-1.4l4.7-6.7l2.2,1.5
			L12,14.2c-1.2,1.7-2.6,2.8-4.2,3c-1.6,0.3-3.2-0.2-4.9-1.3C1.3,14.7,0.3,13.4,0.1,11.8z"/>
		<path d="M13.1,22.2c-0.7-0.8-1.2-1.6-1.4-2.4l1.9-1.3c0.3,0.7,0.7,1.4,1.3,2.2c0.6,0.7,1.2,1.3,2,1.8c0.9,0.6,1.7,0.9,2.4,0.9
			c0.6,0,1.1-0.3,1.4-0.7c0.2-0.4,0.3-0.7,0.2-1.1c-0.1-0.4-0.3-0.8-0.6-1.2c-0.3-0.4-0.8-0.9-1.3-1.4c-0.8-0.8-1.4-1.5-1.9-2.1
			c-0.4-0.6-0.7-1.3-0.9-2c-0.1-0.7,0.1-1.5,0.6-2.3c0.4-0.7,1-1.2,1.7-1.5c0.7-0.3,1.6-0.4,2.5-0.3c1,0.1,2,0.6,3.1,1.2
			c0.8,0.5,1.4,1,2.1,1.7s1.1,1.3,1.4,2l-1.9,1.3c-0.3-0.7-0.8-1.3-1.3-1.8c-0.5-0.5-1-1-1.6-1.3c-0.9-0.6-1.7-0.8-2.3-0.8
			c-0.6,0-1.1,0.3-1.4,0.8c-0.2,0.4-0.3,0.7-0.2,1.1c0.1,0.4,0.3,0.8,0.6,1.1s0.8,0.9,1.3,1.4c0.8,0.8,1.4,1.5,1.9,2.1
			c0.4,0.6,0.7,1.3,0.9,2S23.5,23,23,23.8c-0.4,0.7-1,1.2-1.7,1.5c-0.7,0.3-1.6,0.4-2.5,0.3c-1-0.1-2-0.6-3.1-1.2
			C14.7,23.7,13.8,23,13.1,22.2z"/>
		<path d="M30.7,16l2.4,1.4l-7.3,12.7l-2.4-1.4L30.7,16z"/>
		<path d="M47.8,25.2L41,38.3l-2-1l-2.6-12.6l-4.6,8.8l-2.4-1.2l6.8-13.1l2,1l2.6,12.6l4.6-8.8L47.8,25.2z"/>
		<path d="M57.2,37.4l2.4,1l-2.4,5.4c-0.9,0.2-1.9,0.3-3,0.2c-1.1-0.1-2.1-0.4-3-0.8c-1.4-0.6-2.5-1.5-3.3-2.5
			c-0.8-1.1-1.3-2.3-1.5-3.6c-0.2-1.3,0-2.7,0.6-4c0.6-1.3,1.4-2.4,2.5-3.1c1.1-0.8,2.3-1.2,3.7-1.3c1.4-0.1,2.7,0.1,4.1,0.8
			c1.1,0.5,2.1,1.1,2.8,1.9c0.8,0.8,1.3,1.7,1.6,2.7l-2.3,0.8c-0.6-1.5-1.6-2.5-3-3.2c-0.9-0.4-1.9-0.6-2.8-0.5
			c-0.9,0.1-1.7,0.4-2.5,0.9c-0.7,0.5-1.3,1.3-1.7,2.2c-0.4,0.9-0.5,1.8-0.4,2.7c0.1,0.9,0.4,1.7,1,2.5c0.6,0.7,1.3,1.3,2.2,1.7
			c1,0.5,2.1,0.6,3.1,0.5L57.2,37.4z"/>
		<path d="M70.7,35.1l6.1,2.1c1.5,0.5,2.7,1.3,3.7,2.2c1,1,1.6,2.1,1.8,3.4c0.3,1.3,0.2,2.6-0.3,4c-0.5,1.4-1.2,2.5-2.2,3.3
			s-2.2,1.3-3.5,1.5c-1.3,0.2-2.8,0-4.2-0.5L65.9,49L70.7,35.1z M72.6,48.8c1,0.4,2,0.5,2.9,0.3c0.9-0.1,1.7-0.5,2.4-1.1
			s1.2-1.3,1.5-2.3c0.3-1,0.4-1.9,0.2-2.7c-0.2-0.9-0.6-1.6-1.2-2.3c-0.6-0.7-1.5-1.2-2.5-1.5l-3.4-1.2l-3.3,9.5L72.6,48.8z"/>
		<path d="M92.7,53.8l-7.1-2l-2.3,2.9L80.6,54l10.3-12.4l2.6,0.7l2.5,15.9l-2.8-0.8L92.7,53.8z M92.4,51.5l-0.9-6.9L87,50.1
			L92.4,51.5z"/>
		<path d="M103,47.1L98.3,46l0.5-2.3l12.2,2.7l-0.5,2.3l-4.8-1.1L103,59.8l-2.7-0.6L103,47.1z"/>
		<path d="M119.4,59.5l-7.2-1.2l-2,3.1l-2.8-0.5l9-13.4l2.7,0.5l4,15.6l-2.8-0.5L119.4,59.5z M118.8,57.2l-1.6-6.8l-3.8,5.9
			L118.8,57.2z"/>
	</g>
</g>
</svg>
