<?xml version="1.0" encoding="utf-8"?>
<!-- Generator: Adobe Illustrator 26.3.1, SVG Export Plug-In . SVG Version: 6.00 Build 0)  -->
<svg version="1.1" id="Layer_2_00000037659967289470972190000013705192179187502997_"
	 xmlns="http://www.w3.org/2000/svg" xmlns:xlink="http://www.w3.org/1999/xlink" x="0px" y="0px" viewBox="0 0 61.6 121"
	 style="enable-background:new 0 0 61.6 121;" xml:space="preserve">
<g>
	<g>
		<path d="M12.7,97.9l9.5,12.2l-1.6,2.4l-11.1-3l7,9.1l-1.6,2.4L0,116.9l1.6-2.4l11.3,3.2l-7.2-9.4l1.4-2.1l11.4,3.1l-7.3-9.4
			L12.7,97.9z"/>
		<path d="M29.7,92.9l2,1.1l-5.5,9.6l-12.8-7.3l5.3-9.3l2,1.1l-4,6.9l3.3,1.9l3.5-6.2l2,1.1L22,98.1l3.5,2L29.7,92.9z"/>
		<path d="M20.1,84.3l1.2-2.4l11,5.6l3.5-6.9l2.1,1L33.2,91L20.1,84.3z"/>
		<path d="M25.6,73.4l1.1-2.5L38,76l3.2-7l2.1,0.9L39,79.4L25.6,73.4z"/>
		<path d="M42.8,53.8c0.8-0.2,1.6-0.2,2.4,0.2c1.2,0.5,1.9,1.3,2.2,2.4c0.3,1.2,0.1,2.6-0.6,4.4l-2.6,6.8l-13.7-5.3l2.5-6.4
			c0.6-1.6,1.4-2.7,2.4-3.4c1-0.6,2-0.7,3.1-0.3c0.7,0.3,1.2,0.7,1.6,1.2c0.4,0.5,0.6,1.1,0.7,1.8C41.4,54.4,42.1,54,42.8,53.8z
			 M33.5,60.5l3.8,1.5l1.4-3.6c0.3-0.9,0.4-1.6,0.3-2.2c-0.1-0.6-0.5-1-1.1-1.3c-0.6-0.2-1.2-0.2-1.7,0.2c-0.5,0.4-0.9,1-1.3,1.9
			L33.5,60.5z M44,56.4c-1.3-0.5-2.4,0.2-3.1,2.2l-1.6,4.1l4,1.5l1.6-4.1C45.6,58.1,45.3,56.9,44,56.4z"/>
		<path d="M51.3,41l2.2,0.7L50,52.2l-14-4.5l3.3-10.2l2.2,0.7l-2.5,7.6l3.6,1.2l2.2-6.8l2.1,0.7l-2.2,6.8l3.9,1.3L51.3,41z"/>
		<path d="M40.2,34.5l0.7-2.6l14.1,4l-0.7,2.6L40.2,34.5z"/>
		<path d="M44.9,15.7L59.2,19l-0.5,2.2l-11.5,5.6l9.7,2.3l-0.6,2.6l-14.3-3.4l0.5-2.2L54,20.6l-9.7-2.3L44.9,15.7z"/>
		<path d="M54.4,3.6L54.8,1l5.8,1c0.5,0.8,0.8,1.8,0.9,2.8c0.1,1,0.1,2.1,0,3.1c-0.3,1.5-0.8,2.8-1.6,3.8c-0.8,1.1-1.9,1.9-3.1,2.3
			s-2.6,0.6-4,0.4c-1.4-0.2-2.6-0.8-3.7-1.7c-1-0.9-1.7-2-2.2-3.3c-0.4-1.3-0.5-2.7-0.3-4.2c0.2-1.2,0.6-2.3,1.2-3.2
			C48.3,1.3,49,0.5,49.9,0l1.4,2c-1.3,0.9-2.1,2.2-2.3,3.7c-0.2,1-0.1,2,0.2,2.8c0.3,0.9,0.8,1.6,1.5,2.2c0.7,0.6,1.5,1,2.5,1.1
			c1,0.2,1.9,0.1,2.7-0.2c0.8-0.3,1.6-0.8,2.1-1.6c0.6-0.7,1-1.6,1.1-2.6c0.2-1.1,0.1-2.2-0.2-3.1L54.4,3.6z"/>
	</g>
</g>
</svg>
