<?xml version="1.0" encoding="utf-8"?>
<!-- Generator: Adobe Illustrator 26.3.1, SVG Export Plug-In . SVG Version: 6.00 Build 0)  -->
<svg version="1.1" id="Layer_2_00000037659967289470972190000013705192179187502997_"
	 xmlns="http://www.w3.org/2000/svg" xmlns:xlink="http://www.w3.org/1999/xlink" x="0px" y="0px" viewBox="0 0 134.1 132.4"
	 style="enable-background:new 0 0 134.1 132.4;" xml:space="preserve">
<g>
	<g>
		<path d="M4.8,19.2l3.8-5.8c-0.1-0.1-0.2-0.4-0.3-0.7L6.7,8.5l-5.3,2.1L0,7.3L18.2,0l3,7.5c0.6,1.6,0.9,3.1,0.9,4.4
			s-0.4,2.6-1.2,3.6c-0.7,1-1.8,1.8-3.1,2.3c-1.4,0.5-2.7,0.7-3.9,0.4c-1.3-0.3-2.4-0.9-3.4-2l-4.3,6.6L4.8,19.2z M18.7,12.2
			c0.3-1,0.2-2.3-0.4-3.7l-1.6-4L9.4,7.4l1.6,4c0.6,1.5,1.3,2.5,2.3,3c0.9,0.5,2,0.5,3.1,0.1C17.6,14,18.4,13.2,18.7,12.2z"/>
		<path d="M17.7,38.7L15,40.1L8.3,27.1l17.4-9l6.6,12.7l-2.7,1.4l-4.9-9.5L20.1,25l4.4,8.4l-2.7,1.4l-4.4-8.4l-4.8,2.5L17.7,38.7z"
			/>
		<path d="M33.5,38.5l-5,3.2l5.1,8L31,51.3l-5.1-8l-6.3,4l-2-3.1l16.5-10.6l7.7,12l-2.6,1.6L33.5,38.5z"/>
		<path d="M43.4,48l2.2,2.9L32.6,60.9l6.3,8.1l-2.4,1.9l-8.5-11L43.4,48z"/>
		<path d="M51.1,82.5l-2.2,2.1l-10-10.8l14.4-13.3L63,71l-2.2,2.1l-7.2-7.8l-3.7,3.5l6.4,6.9l-2.2,2l-6.4-6.9l-4,3.7L51.1,82.5z"/>
		<path d="M55.8,89.7c-0.6-1.7-0.8-3.4-0.4-5.2c0.3-1.7,1.1-3.3,2.4-4.8c1.3-1.4,2.8-2.4,4.5-3c1.7-0.5,3.4-0.6,5.2-0.2
			c1.8,0.4,3.4,1.3,4.9,2.6c1.2,1.1,2.1,2.2,2.7,3.5c0.6,1.3,0.9,2.6,0.9,4.1l-3.2,0.1c0-2.1-0.8-3.8-2.4-5.2
			c-1-0.9-2.1-1.5-3.3-1.7c-1.2-0.3-2.3-0.2-3.5,0.2c-1.1,0.4-2.2,1.1-3,2.1c-0.9,1-1.4,2.1-1.7,3.3c-0.2,1.2-0.2,2.3,0.2,3.5
			c0.4,1.1,1.1,2.2,2.1,3.1c1.6,1.4,3.4,2,5.5,1.7L67,97c-1.4,0.2-2.8,0-4.1-0.4c-1.4-0.5-2.7-1.2-3.9-2.3
			C57.5,92.9,56.5,91.4,55.8,89.7z"/>
		<path d="M81.3,90.8l-5.2-3.8l1.8-2.5l13.4,9.8l-1.8,2.5l-5.2-3.8l-9.8,13.3l-2.9-2.2L81.3,90.8z"/>
		<path d="M93.2,95.3l3.1,2l-10.5,16.5l-3.1-2L93.2,95.3z"/>
		<path d="M115.4,107.9l-9.2,17.3l-2.6-1.4l-3.3-16.8l-6.2,11.7l-3.2-1.7l9.2-17.3l2.6,1.4l3.3,16.8l6.2-11.7L115.4,107.9z"/>
		<path d="M128.2,123.5l3.2,1.3l-2.9,7.3c-1.2,0.4-2.6,0.5-4,0.4c-1.4-0.1-2.8-0.4-4.1-0.9c-1.9-0.7-3.4-1.8-4.5-3.2
			c-1.2-1.4-1.9-3-2.2-4.7c-0.3-1.8-0.1-3.5,0.6-5.3c0.7-1.8,1.8-3.2,3.2-4.3c1.4-1.1,3-1.7,4.9-2c1.8-0.2,3.7,0.1,5.5,0.8
			c1.5,0.6,2.8,1.4,3.9,2.4s1.8,2.2,2.3,3.5l-3,1.2c-0.8-1.9-2.2-3.3-4.2-4.1c-1.3-0.5-2.5-0.7-3.7-0.5c-1.2,0.1-2.3,0.6-3.2,1.3
			c-0.9,0.7-1.7,1.7-2.2,3c-0.5,1.2-0.6,2.4-0.5,3.6s0.7,2.3,1.4,3.2c0.8,1,1.8,1.7,3.1,2.2c1.4,0.6,2.8,0.7,4.1,0.5L128.2,123.5z"
			/>
	</g>
</g>
</svg>
